<svg width="10" height="13" viewBox="0 0 10 13" fill="none" xmlns="http://www.w3.org/2000/svg">
<path opacity="0.7" d="M8.75 7.16406C8.90625 7.00781 9.02344 6.77344 9.02344 6.5C9.02344 6.26562 8.90625 6.03125 8.75 5.83594L3.4375 0.523438C3.24219 0.367188 3.00781 0.25 2.77344 0.25C2.5 0.25 2.26562 0.367188 2.10938 0.523438L1.25 1.42188C1.05469 1.61719 0.976562 1.85156 0.976562 2.08594C0.976562 2.35938 1.05469 2.59375 1.25 2.75L5 6.5L1.25 10.25C1.05469 10.4453 0.976562 10.6797 0.976562 10.9141C0.976562 11.1875 1.05469 11.4219 1.25 11.5781L2.10938 12.4766C2.26562 12.6719 2.5 12.75 2.77344 12.75C3.00781 12.75 3.24219 12.6719 3.4375 12.4766L8.75 7.16406Z" fill="#999999"/>
</svg>
