<svg width="18" height="20" viewBox="0 0 18 20" fill="none" xmlns="http://www.w3.org/2000/svg">
<path d="M8.62503 19.7144C7.93195 19.7144 7.35438 19.4833 6.89232 19.0213C6.09102 18.2816 7.04476 17.2501 8.13526 17.2501H9.12175C10.2084 17.2501 11.1261 18.2529 10.3577 19.0213C9.85718 19.4833 9.27961 19.7144 8.62503 19.7144ZM16.8181 13.8435C16.8622 13.9256 16.94 13.9783 16.9939 14.0543C17.1647 14.2946 17.2501 14.5594 17.2501 14.8243C17.2501 15.1323 17.1345 15.4403 16.9035 15.6714C16.6725 15.9024 16.3645 16.0179 16.0179 16.0179H1.23215C0.847101 16.0179 0.577569 15.9024 0.346541 15.6714C0.115514 15.4403 0 15.1323 0 14.8243C0 14.5162 0.115514 14.2082 0.346541 13.9387L0.462055 13.7846C1.03962 13.1686 1.46317 12.591 1.77121 11.9749C2.23327 10.9738 2.46429 9.62615 2.46429 8.00896C2.46429 6.54578 2.92635 5.23663 3.85046 4.11999C4.60374 3.24117 5.51052 2.61819 6.61252 2.25105C7.05962 2.1021 7.39288 1.7034 7.39288 1.23215C7.39288 0.92411 7.5084 0.616074 7.73942 0.385046C7.97045 0.154018 8.27849 0 8.62503 0C8.93307 0 9.2411 0.154018 9.47213 0.385046C9.70316 0.616074 9.85718 0.92411 9.85718 1.23215C9.85718 1.70399 10.1894 2.10399 10.6363 2.25543C11.7213 2.62313 12.6493 3.24465 13.3996 4.11999C14.3237 5.23663 14.7858 6.54578 14.7858 8.00896C14.7858 9.62615 15.0168 10.9738 15.4788 11.9749C15.743 12.5787 16.1551 13.1455 16.7514 13.7479C16.7755 13.7722 16.8019 13.8133 16.8181 13.8435Z" fill="url(#paint0_linear_3_44)"/>
<defs>
<linearGradient id="paint0_linear_3_44" x1="-2.44615e-08" y1="-1.21053" x2="20.0236" y2="1.50403" gradientUnits="userSpaceOnUse">
<stop stop-color="#FECF3E"/>
<stop offset="1" stop-color="#FECF3E"/>
</linearGradient>
</defs>
</svg>
