<svg width="39" height="39" viewBox="0 0 39 39" fill="none" xmlns="http://www.w3.org/2000/svg">
<circle opacity="0.1" cx="19.3548" cy="19.5162" r="19.3548" fill="url(#paint0_linear_202_1091)"/>
<path d="M24.7258 21.5885C24.1408 21.4626 23.678 21.7343 23.2682 21.9715C22.8485 22.2159 22.0505 22.8634 21.5931 22.6977C19.2511 21.7334 17.0485 19.6836 16.095 17.3323C15.927 16.8651 16.5713 16.062 16.814 15.6374C17.0494 15.2263 17.3154 14.7591 17.1941 14.1697C17.0844 13.64 15.6664 11.8356 15.1649 11.3421C14.8342 11.0162 14.4954 10.8369 14.1476 10.808C12.84 10.7518 11.3797 12.4965 11.1236 12.9139C10.4819 13.8039 10.4855 14.9882 11.1344 16.4241C12.698 20.2811 18.6122 26.1019 22.4836 27.7244C23.1981 28.0585 23.8514 28.226 24.4383 28.226C25.0125 28.226 25.5239 28.0657 25.9633 27.7479C26.2949 27.5569 28.1112 26.0241 28.0635 24.6814C28.0347 24.3392 27.8559 23.9969 27.5342 23.6655C27.0444 23.1594 25.2516 21.699 24.7258 21.5885Z" fill="url(#paint1_linear_202_1091)"/>
<defs>
<linearGradient id="paint0_linear_202_1091" x1="-5.48924e-08" y1="-2.21553" x2="44.6867" y2="4.70801" gradientUnits="userSpaceOnUse">
<stop stop-color="#53E88B"/>
<stop offset="1" stop-color="#15BE77"/>
</linearGradient>
<linearGradient id="paint1_linear_202_1091" x1="10.645" y1="9.73703" x2="30.754" y2="12.8526" gradientUnits="userSpaceOnUse">
<stop stop-color="#084523"/>
<stop offset="1" stop-color="#084523"/>
</linearGradient>
</defs>
</svg>
