<svg width="56" height="57" viewBox="0 0 56 57" fill="none" xmlns="http://www.w3.org/2000/svg">
<circle cx="53.9484" cy="5.27918" r="1.94325" fill="#E21B1B"/>
<circle cx="4.39569" cy="1.39301" r="0.971623" fill="#E21B1B"/>
<circle cx="52.9767" cy="55.8041" r="0.971623" fill="#E21B1B"/>
<circle cx="4.88146" cy="51.4314" r="4.3723" fill="#E21B1B"/>
<g clip-path="url(#clip0_224_3056)">
<path d="M27.7147 49.0026C38.4469 49.0026 47.1471 40.3024 47.1471 29.5701C47.1471 18.8379 38.4469 10.1377 27.7147 10.1377C16.9824 10.1377 8.28223 18.8379 8.28223 29.5701C8.28223 40.3024 16.9824 49.0026 27.7147 49.0026Z" fill="#E21B1B"/>
<path d="M47.0164 31.7947L36.2096 20.9878L19.6871 38.1181L30.3847 48.8157C39.1275 47.6133 46.0126 40.5988 47.0164 31.7947Z" fill="#C40606"/>
<path d="M35.1825 38.3406C34.7938 38.3406 34.4058 38.1925 34.1088 37.8961L19.396 23.1827C18.8027 22.5894 18.8027 21.6287 19.396 21.0361C19.9893 20.4434 20.95 20.4428 21.5427 21.0361L36.2561 35.7494C36.8494 36.3427 36.8494 37.3034 36.2561 37.8961C35.9591 38.1925 35.5711 38.3406 35.1825 38.3406Z" fill="white"/>
<path d="M20.4687 38.3404C20.08 38.3404 19.692 38.1922 19.395 37.8959C18.8017 37.3026 18.8017 36.3419 19.395 35.7492L34.1084 21.0358C34.7017 20.4425 35.6624 20.4425 36.2551 21.0358C36.8478 21.6291 36.8484 22.5898 36.2551 23.1825L21.5423 37.8959C21.246 38.1922 20.8573 38.3404 20.4687 38.3404Z" fill="white"/>
</g>
<defs>
<clipPath id="clip0_224_3056">
<rect width="38.8649" height="38.8649" fill="white" transform="translate(8.28223 10.1377)"/>
</clipPath>
</defs>
</svg>
