<svg width="343" height="200" viewBox="0 0 343 200" fill="none" xmlns="http://www.w3.org/2000/svg">
<rect x="1.01025" width="337.374" height="200" rx="10" fill="url(#paint0_linear_142_3915)"/>
<mask id="mask0_142_3915" style="mask-type:alpha" maskUnits="userSpaceOnUse" x="0" y="0" width="343" height="200">
<rect width="342.424" height="200" rx="10" fill="url(#paint1_linear_142_3915)"/>
</mask>
<g mask="url(#mask0_142_3915)">
<circle cx="29.9245" cy="89.4361" r="159.554" fill="white" fill-opacity="0.05"/>
</g>
<path d="M280.591 46.1978H274.448L278.29 22.649H284.434L280.591 46.1978Z" fill="white"/>
<path d="M302.863 23.2247C301.651 22.7483 299.729 22.2222 297.353 22.2222C291.286 22.2222 287.013 25.4286 286.987 30.0129C286.937 33.3952 290.046 35.2738 292.371 36.4016C294.748 37.554 295.556 38.3062 295.556 39.3334C295.532 40.911 293.636 41.6382 291.867 41.6382C289.414 41.6382 288.1 41.2632 286.102 40.3855L285.293 40.0093L284.434 45.2955C285.875 45.9461 288.529 46.5235 291.286 46.5488C297.732 46.5488 301.929 43.3919 301.978 38.5066C302.003 35.8259 300.361 33.7718 296.821 32.0933C294.673 31.0158 293.357 30.2893 293.357 29.1868C293.382 28.1846 294.47 27.1581 296.895 27.1581C298.893 27.1078 300.36 27.5836 301.472 28.0598L302.028 28.3098L302.863 23.2247Z" fill="white"/>
<path d="M311.029 37.8553C311.535 36.5025 313.482 31.2666 313.482 31.2666C313.456 31.3169 313.987 29.8888 314.29 29.0121L314.719 31.0412C314.719 31.0412 315.883 36.678 316.135 37.8553C315.175 37.8553 312.242 37.8553 311.029 37.8553ZM318.612 22.649H313.86C312.395 22.649 311.281 23.0746 310.649 24.6029L301.523 46.1975H307.97C307.97 46.1975 309.031 43.291 309.259 42.6651C309.966 42.6651 316.238 42.6651 317.147 42.6651C317.324 43.4918 317.88 46.1975 317.88 46.1975H323.569L318.612 22.649Z" fill="white"/>
<path d="M269.316 22.649L263.3 38.7071L262.642 35.4503C261.53 31.6924 258.041 27.6096 254.148 25.5795L259.659 46.1729H266.156L275.813 22.649H269.316Z" fill="white"/>
<path d="M257.713 22.6487H247.828L247.727 23.1245C255.438 25.0787 260.544 29.7892 262.642 35.4509L260.494 24.6282C260.14 23.1242 259.053 22.6983 257.713 22.6487Z" fill="white"/>
<path fill-rule="evenodd" clip-rule="evenodd" d="M30.2524 21.8855H38.2153V31.2096L25.2524 31.2096V26.8855C25.2524 24.1241 27.491 21.8855 30.2524 21.8855ZM25.2524 33.5406L38.2153 33.5406V40.5335H25.2524V33.5406ZM25.2524 42.8645V47.1885C25.2524 49.9499 27.491 52.1885 30.2524 52.1885H38.2153V42.8645H25.2524ZM52.3568 52.1885H40.5722V21.8855H62.6767C65.4381 21.8855 67.6767 24.1241 67.6767 26.8855V31.2096L54.7137 31.2096L52.9461 31.2096L52.3568 31.2096V52.1885ZM54.7137 33.5406L67.6767 33.5406V40.5335H54.7137V33.5406ZM54.7137 42.8645V52.1885H62.6767C65.4381 52.1885 67.6767 49.9499 67.6767 47.1885V42.8645H54.7137Z" fill="#DFDEDE"/>
<path fill-rule="evenodd" clip-rule="evenodd" d="M30.2524 21.8855H38.2153V31.2096L25.2524 31.2096V26.8855C25.2524 24.1241 27.491 21.8855 30.2524 21.8855ZM25.2524 33.5406L38.2153 33.5406V40.5335H25.2524V33.5406ZM25.2524 42.8645V47.1885C25.2524 49.9499 27.491 52.1885 30.2524 52.1885H38.2153V42.8645H25.2524ZM52.3568 52.1885H40.5722V21.8855H62.6767C65.4381 21.8855 67.6767 24.1241 67.6767 26.8855V31.2096L54.7137 31.2096L52.9461 31.2096L52.3568 31.2096V52.1885ZM54.7137 33.5406L67.6767 33.5406V40.5335H54.7137V33.5406ZM54.7137 42.8645V52.1885H62.6767C65.4381 52.1885 67.6767 49.9499 67.6767 47.1885V42.8645H54.7137Z" fill="url(#paint2_linear_142_3915)"/>
<path d="M25.5577 126.599C25.2377 126.599 24.9417 126.527 24.6697 126.383C24.4137 126.239 24.2857 126.031 24.2857 125.759V112.415L23.4457 113.471C23.3497 113.551 23.2537 113.615 23.1577 113.663C23.0777 113.695 22.9977 113.711 22.9177 113.711C22.6617 113.711 22.4537 113.607 22.2937 113.399C22.1337 113.175 22.0537 112.935 22.0537 112.679C22.0537 112.487 22.1017 112.303 22.1977 112.127C22.2937 111.951 22.4137 111.807 22.5577 111.695L25.0537 109.295C25.1337 109.215 25.2217 109.151 25.3177 109.103C25.4297 109.055 25.5577 109.031 25.7017 109.031C25.9737 109.031 26.2297 109.103 26.4697 109.247C26.7097 109.391 26.8297 109.599 26.8297 109.871V125.759C26.8297 126.031 26.6937 126.239 26.4217 126.383C26.1657 126.527 25.8777 126.599 25.5577 126.599ZM30.1082 126.599C29.8842 126.599 29.6362 126.527 29.3642 126.383C29.1082 126.223 28.9802 126.015 28.9802 125.759V123.431C28.9802 122.775 29.1642 122.175 29.5322 121.631C29.9162 121.071 30.4042 120.543 30.9962 120.047C31.6042 119.551 32.2442 119.071 32.9162 118.607C33.5882 118.127 34.2202 117.647 34.8122 117.167C35.4042 116.671 35.8922 116.159 36.2762 115.631C36.6602 115.103 36.8522 114.527 36.8522 113.903C36.8522 113.503 36.7562 113.111 36.5642 112.727C36.3882 112.343 36.1082 112.023 35.7242 111.767C35.3402 111.511 34.8442 111.383 34.2362 111.383C33.5642 111.383 32.9882 111.575 32.5082 111.959C32.0442 112.343 31.8122 112.943 31.8122 113.759C31.8122 113.999 31.6922 114.223 31.4522 114.431C31.2282 114.623 30.9082 114.719 30.4922 114.719C30.1402 114.719 29.8602 114.623 29.6522 114.431C29.4442 114.223 29.3402 113.847 29.3402 113.303C29.3402 112.439 29.5642 111.695 30.0122 111.071C30.4602 110.431 31.0602 109.935 31.8122 109.583C32.5642 109.231 33.3722 109.055 34.2362 109.055C35.1642 109.055 36.0202 109.255 36.8042 109.655C37.5882 110.055 38.2122 110.615 38.6762 111.335C39.1562 112.039 39.3962 112.871 39.3962 113.831C39.3962 114.679 39.2042 115.447 38.8202 116.135C38.4522 116.823 37.9722 117.447 37.3802 118.007C36.7882 118.567 36.1562 119.079 35.4842 119.543C34.8282 120.007 34.2042 120.447 33.6122 120.863C33.0362 121.279 32.5562 121.695 32.1722 122.111C31.8042 122.527 31.6202 122.967 31.6202 123.431V124.343H38.6522C38.8762 124.343 39.0682 124.455 39.2282 124.679C39.4042 124.887 39.4922 125.143 39.4922 125.447C39.4922 125.751 39.4042 126.023 39.2282 126.263C39.0682 126.487 38.8762 126.599 38.6522 126.599H30.1082ZM45.9996 126.743C45.0716 126.743 44.2716 126.615 43.5996 126.359C42.9276 126.103 42.3756 125.767 41.9436 125.351C41.5116 124.935 41.1916 124.479 40.9836 123.983C40.7916 123.487 40.6956 122.999 40.6956 122.519C40.6956 122.087 40.7836 121.799 40.9596 121.655C41.1516 121.511 41.4636 121.439 41.8956 121.439C42.4076 121.439 42.7516 121.519 42.9276 121.679C43.1036 121.823 43.1916 122.063 43.1916 122.399C43.1916 122.655 43.2476 122.911 43.3596 123.167C43.4876 123.407 43.6636 123.631 43.8876 123.839C44.1116 124.031 44.3996 124.191 44.7516 124.319C45.1196 124.431 45.5436 124.487 46.0236 124.487C47.0156 124.487 47.7436 124.255 48.2076 123.791C48.6876 123.311 48.9276 122.551 48.9276 121.511V121.055C48.9276 120.095 48.6556 119.423 48.1116 119.039C47.5836 118.639 46.8876 118.439 46.0236 118.439C45.7196 118.439 45.5036 118.335 45.3756 118.127C45.2476 117.903 45.1836 117.671 45.1836 117.431C45.1836 117.159 45.2476 116.919 45.3756 116.711C45.5036 116.503 45.7116 116.399 45.9996 116.399C46.4956 116.399 46.9276 116.335 47.2956 116.207C47.6796 116.063 47.9756 115.799 48.1836 115.415C48.3916 115.031 48.4956 114.479 48.4956 113.759C48.4956 112.879 48.2876 112.247 47.8716 111.863C47.4716 111.479 46.8796 111.287 46.0956 111.287C45.6156 111.287 45.2156 111.343 44.8956 111.455C44.5756 111.567 44.3196 111.719 44.1276 111.911C43.9356 112.103 43.7996 112.311 43.7196 112.535C43.6396 112.759 43.5996 112.999 43.5996 113.255C43.5996 113.559 43.5116 113.807 43.3356 113.999C43.1756 114.191 42.8636 114.287 42.3996 114.287C42.0316 114.287 41.7516 114.255 41.5596 114.191C41.3676 114.127 41.2396 114.007 41.1756 113.831C41.1116 113.655 41.0796 113.415 41.0796 113.111C41.0796 112.727 41.1596 112.303 41.3196 111.839C41.4796 111.359 41.7436 110.911 42.1116 110.495C42.4956 110.063 43.0156 109.719 43.6716 109.463C44.3276 109.191 45.1436 109.055 46.1196 109.055C47.0636 109.055 47.8956 109.191 48.6156 109.463C49.3356 109.735 49.9036 110.183 50.3196 110.807C50.7356 111.431 50.9436 112.271 50.9436 113.327C50.9436 114.335 50.7676 115.191 50.4156 115.895C50.0796 116.583 49.6156 117.063 49.0236 117.335C49.7276 117.607 50.3116 118.039 50.7756 118.631C51.2396 119.223 51.4716 120.031 51.4716 121.055V121.511C51.4716 122.775 51.2236 123.791 50.7276 124.559C50.2476 125.327 49.5916 125.887 48.7596 126.239C47.9276 126.575 47.0076 126.743 45.9996 126.743ZM60.4425 126.599C60.1225 126.599 59.8265 126.527 59.5545 126.383C59.2985 126.239 59.1705 126.031 59.1705 125.759V122.663H53.2905C53.0185 122.663 52.8025 122.583 52.6425 122.423C52.4825 122.247 52.4025 122.015 52.4025 121.727C52.4025 121.647 52.4105 121.559 52.4265 121.463C52.4585 121.367 52.4985 121.279 52.5465 121.199L58.3305 109.751C58.4745 109.495 58.6425 109.319 58.8345 109.223C59.0425 109.111 59.2505 109.055 59.4585 109.055C59.6185 109.055 59.7945 109.095 59.9865 109.175C60.1785 109.255 60.3465 109.367 60.4905 109.511C60.6345 109.655 60.7065 109.831 60.7065 110.039C60.7065 110.135 60.6745 110.263 60.6105 110.423L55.6425 120.287H59.1705V116.975C59.1705 116.671 59.2985 116.455 59.5545 116.327C59.8265 116.199 60.1225 116.135 60.4425 116.135C60.7625 116.135 61.0505 116.199 61.3065 116.327C61.5785 116.455 61.7145 116.671 61.7145 116.975V120.287H62.9145C63.2025 120.287 63.4105 120.415 63.5385 120.671C63.6825 120.911 63.7545 121.183 63.7545 121.487C63.7545 121.775 63.6665 122.047 63.4905 122.303C63.3305 122.543 63.1385 122.663 62.9145 122.663H61.7145V125.759C61.7145 126.031 61.5785 126.239 61.3065 126.383C61.0505 126.527 60.7625 126.599 60.4425 126.599ZM74.5944 126.743C73.4424 126.743 72.4584 126.543 71.6424 126.143C70.8424 125.743 70.2344 125.223 69.8184 124.583C69.4024 123.927 69.1944 123.231 69.1944 122.495C69.1944 122.031 69.3064 121.719 69.5304 121.559C69.7544 121.399 70.0584 121.319 70.4424 121.319C70.9704 121.319 71.3144 121.415 71.4744 121.607C71.6504 121.799 71.7384 122.039 71.7384 122.327C71.7384 122.775 71.8584 123.167 72.0984 123.503C72.3544 123.823 72.6984 124.071 73.1304 124.247C73.5624 124.407 74.0344 124.487 74.5464 124.487C75.4424 124.487 76.1464 124.247 76.6584 123.767C77.1704 123.271 77.4264 122.503 77.4264 121.463V121.007C77.4264 119.983 77.1704 119.223 76.6584 118.727C76.1464 118.231 75.4504 117.983 74.5704 117.983H71.1144C70.6824 117.983 70.3864 117.895 70.2264 117.719C70.0824 117.527 70.0104 117.287 70.0104 116.999C70.0104 116.887 70.0104 116.791 70.0104 116.711C70.0264 116.615 70.0424 116.519 70.0584 116.423L70.6104 109.895C70.6424 109.639 70.6984 109.439 70.7784 109.295C70.8744 109.135 71.0104 109.055 71.1864 109.055H78.3144C78.5864 109.055 78.7864 109.175 78.9144 109.415C79.0424 109.639 79.1064 109.895 79.1064 110.183C79.1064 110.471 79.0424 110.735 78.9144 110.975C78.7864 111.199 78.5864 111.311 78.3144 111.311H72.7704L72.4344 115.967H74.5704C75.5944 115.967 76.5064 116.127 77.3064 116.447C78.1224 116.767 78.7704 117.303 79.2504 118.055C79.7304 118.791 79.9704 119.775 79.9704 121.007V121.463C79.9704 122.743 79.7224 123.775 79.2264 124.559C78.7464 125.327 78.0984 125.887 77.2824 126.239C76.4824 126.575 75.5864 126.743 74.5944 126.743ZM87.1732 126.743C86.1652 126.743 85.2532 126.567 84.4372 126.215C83.6212 125.863 82.9732 125.295 82.4932 124.511C82.0132 123.727 81.7732 122.687 81.7732 121.391V114.407C81.7732 113.111 82.0132 112.071 82.4932 111.287C82.9892 110.503 83.6532 109.935 84.4852 109.583C85.3172 109.231 86.2532 109.055 87.2932 109.055C88.1892 109.055 88.9652 109.183 89.6212 109.439C90.2932 109.679 90.8452 110.007 91.2772 110.423C91.7092 110.839 92.0292 111.303 92.2372 111.815C92.4452 112.327 92.5492 112.831 92.5492 113.327C92.5492 113.743 92.4532 114.031 92.2612 114.191C92.0692 114.335 91.7652 114.407 91.3492 114.407C91.0132 114.407 90.7092 114.343 90.4372 114.215C90.1652 114.071 90.0292 113.815 90.0292 113.447C90.0292 112.999 89.9012 112.623 89.6452 112.319C89.3892 111.999 89.0452 111.751 88.6132 111.575C88.1972 111.399 87.7332 111.311 87.2212 111.311C86.3092 111.311 85.5972 111.567 85.0852 112.079C84.5732 112.575 84.3172 113.351 84.3172 114.407V117.431C84.7172 116.935 85.2052 116.583 85.7812 116.375C86.3732 116.167 86.9972 116.063 87.6532 116.063C88.5652 116.063 89.3892 116.215 90.1252 116.519C90.8612 116.807 91.4452 117.311 91.8772 118.031C92.3252 118.735 92.5492 119.711 92.5492 120.959V121.391C92.5492 122.687 92.3092 123.727 91.8292 124.511C91.3652 125.295 90.7252 125.863 89.9092 126.215C89.0932 126.567 88.1812 126.743 87.1732 126.743ZM87.1732 124.631C88.0692 124.631 88.7652 124.383 89.2612 123.887C89.7572 123.391 90.0052 122.607 90.0052 121.535V121.127C90.0052 120.023 89.7572 119.247 89.2612 118.799C88.7652 118.335 88.0612 118.103 87.1492 118.103C86.3012 118.103 85.6132 118.319 85.0852 118.751C84.5732 119.167 84.3172 119.887 84.3172 120.911V121.535C84.3172 122.607 84.5652 123.391 85.0612 123.887C85.5732 124.383 86.2772 124.631 87.1732 124.631ZM97.0873 126.671C96.8313 126.671 96.5753 126.623 96.3193 126.527C96.0793 126.415 95.8793 126.263 95.7193 126.071C95.5753 125.879 95.5033 125.663 95.5033 125.423C95.5033 125.279 95.5433 125.119 95.6233 124.943L102.223 112.799V111.311H96.5353V113.567C96.5353 113.807 96.3993 114.007 96.1273 114.167C95.8713 114.327 95.5753 114.407 95.2393 114.407C94.9033 114.407 94.6073 114.327 94.3513 114.167C94.1113 114.007 93.9913 113.807 93.9913 113.567V109.895C93.9913 109.687 94.1033 109.495 94.3273 109.319C94.5673 109.143 94.8313 109.055 95.1193 109.055H103.639C103.895 109.055 104.143 109.143 104.383 109.319C104.639 109.495 104.767 109.687 104.767 109.895V112.367C104.767 112.559 104.719 112.791 104.623 113.063C104.527 113.319 104.423 113.559 104.311 113.783L97.8553 126.287C97.7113 126.543 97.4553 126.671 97.0873 126.671ZM111.353 126.743C110.345 126.743 109.433 126.583 108.617 126.263C107.801 125.927 107.153 125.399 106.673 124.679C106.193 123.943 105.953 122.983 105.953 121.799V121.511C105.953 120.279 106.209 119.303 106.721 118.583C107.249 117.847 107.921 117.327 108.737 117.023C108.065 116.767 107.521 116.335 107.105 115.727C106.705 115.119 106.505 114.303 106.505 113.279C106.505 112.255 106.713 111.431 107.129 110.807C107.561 110.183 108.137 109.735 108.857 109.463C109.593 109.191 110.425 109.055 111.353 109.055C112.297 109.055 113.129 109.191 113.849 109.463C114.585 109.735 115.161 110.183 115.577 110.807C116.009 111.431 116.225 112.255 116.225 113.279C116.225 114.303 116.017 115.119 115.601 115.727C115.185 116.335 114.649 116.767 113.993 117.023C114.825 117.327 115.489 117.847 115.985 118.583C116.481 119.303 116.729 120.279 116.729 121.511V121.799C116.729 122.983 116.489 123.943 116.009 124.679C115.545 125.399 114.905 125.927 114.089 126.263C113.273 126.583 112.361 126.743 111.353 126.743ZM111.377 124.631C112.273 124.631 112.969 124.375 113.465 123.863C113.961 123.351 114.209 122.575 114.209 121.535V121.103C114.209 120.079 113.953 119.327 113.441 118.847C112.945 118.351 112.249 118.103 111.353 118.103C110.473 118.103 109.777 118.351 109.265 118.847C108.753 119.327 108.497 120.079 108.497 121.103V121.535C108.497 122.607 108.753 123.391 109.265 123.887C109.793 124.383 110.497 124.631 111.377 124.631ZM111.353 115.991C112.121 115.991 112.713 115.807 113.129 115.439C113.561 115.055 113.777 114.431 113.777 113.567C113.777 112.719 113.561 112.111 113.129 111.743C112.713 111.359 112.121 111.167 111.353 111.167C110.601 111.167 110.009 111.359 109.577 111.743C109.161 112.111 108.953 112.719 108.953 113.567C108.953 114.431 109.161 115.055 109.577 115.439C110.009 115.807 110.601 115.991 111.353 115.991ZM128.649 126.743C127.753 126.743 126.969 126.623 126.297 126.383C125.641 126.127 125.097 125.791 124.665 125.375C124.233 124.959 123.905 124.495 123.681 123.983C123.473 123.471 123.369 122.967 123.369 122.471C123.369 122.055 123.465 121.775 123.657 121.631C123.865 121.471 124.169 121.391 124.569 121.391C124.905 121.391 125.209 121.455 125.481 121.583C125.753 121.711 125.889 121.967 125.889 122.351C125.889 122.799 126.017 123.183 126.273 123.503C126.529 123.807 126.865 124.047 127.281 124.223C127.713 124.399 128.185 124.487 128.697 124.487C129.609 124.487 130.321 124.239 130.833 123.743C131.361 123.231 131.625 122.447 131.625 121.391V118.367C131.225 118.863 130.729 119.215 130.137 119.423C129.561 119.631 128.937 119.735 128.265 119.735C127.369 119.735 126.545 119.591 125.793 119.303C125.057 118.999 124.465 118.495 124.017 117.791C123.585 117.071 123.369 116.087 123.369 114.839V114.407C123.369 113.111 123.609 112.071 124.089 111.287C124.569 110.503 125.209 109.935 126.009 109.583C126.825 109.231 127.737 109.055 128.745 109.055C129.769 109.055 130.689 109.231 131.505 109.583C132.321 109.935 132.969 110.503 133.449 111.287C133.929 112.071 134.169 113.111 134.169 114.407V121.391C134.169 122.687 133.921 123.727 133.425 124.511C132.929 125.295 132.265 125.863 131.433 126.215C130.601 126.567 129.673 126.743 128.649 126.743ZM128.769 117.695C129.633 117.695 130.321 117.479 130.833 117.047C131.361 116.615 131.625 115.895 131.625 114.887V114.263C131.625 113.191 131.369 112.407 130.857 111.911C130.345 111.415 129.641 111.167 128.745 111.167C127.865 111.167 127.169 111.415 126.657 111.911C126.161 112.407 125.913 113.191 125.913 114.263V114.671C125.913 115.775 126.161 116.559 126.657 117.023C127.169 117.471 127.873 117.695 128.769 117.695ZM139.019 126.599C138.699 126.599 138.403 126.527 138.131 126.383C137.875 126.239 137.747 126.031 137.747 125.759V112.415L136.907 113.471C136.811 113.551 136.715 113.615 136.619 113.663C136.539 113.695 136.459 113.711 136.379 113.711C136.123 113.711 135.915 113.607 135.755 113.399C135.595 113.175 135.515 112.935 135.515 112.679C135.515 112.487 135.563 112.303 135.659 112.127C135.755 111.951 135.875 111.807 136.019 111.695L138.515 109.295C138.595 109.215 138.683 109.151 138.779 109.103C138.891 109.055 139.019 109.031 139.163 109.031C139.435 109.031 139.691 109.103 139.931 109.247C140.171 109.391 140.291 109.599 140.291 109.871V125.759C140.291 126.031 140.155 126.239 139.883 126.383C139.627 126.527 139.339 126.599 139.019 126.599ZM143.569 126.599C143.345 126.599 143.097 126.527 142.825 126.383C142.569 126.223 142.441 126.015 142.441 125.759V123.431C142.441 122.775 142.625 122.175 142.993 121.631C143.377 121.071 143.865 120.543 144.457 120.047C145.065 119.551 145.705 119.071 146.377 118.607C147.049 118.127 147.681 117.647 148.273 117.167C148.865 116.671 149.353 116.159 149.737 115.631C150.121 115.103 150.313 114.527 150.313 113.903C150.313 113.503 150.217 113.111 150.025 112.727C149.849 112.343 149.569 112.023 149.185 111.767C148.801 111.511 148.305 111.383 147.697 111.383C147.025 111.383 146.449 111.575 145.969 111.959C145.505 112.343 145.273 112.943 145.273 113.759C145.273 113.999 145.153 114.223 144.913 114.431C144.689 114.623 144.369 114.719 143.953 114.719C143.601 114.719 143.321 114.623 143.113 114.431C142.905 114.223 142.801 113.847 142.801 113.303C142.801 112.439 143.025 111.695 143.473 111.071C143.921 110.431 144.521 109.935 145.273 109.583C146.025 109.231 146.833 109.055 147.697 109.055C148.625 109.055 149.481 109.255 150.265 109.655C151.049 110.055 151.673 110.615 152.137 111.335C152.617 112.039 152.857 112.871 152.857 113.831C152.857 114.679 152.665 115.447 152.281 116.135C151.913 116.823 151.433 117.447 150.841 118.007C150.249 118.567 149.617 119.079 148.945 119.543C148.289 120.007 147.665 120.447 147.073 120.863C146.497 121.279 146.017 121.695 145.633 122.111C145.265 122.527 145.081 122.967 145.081 123.431V124.343H152.113C152.337 124.343 152.529 124.455 152.689 124.679C152.865 124.887 152.953 125.143 152.953 125.447C152.953 125.751 152.865 126.023 152.689 126.263C152.529 126.487 152.337 126.599 152.113 126.599H143.569ZM159.46 126.743C158.532 126.743 157.732 126.615 157.06 126.359C156.388 126.103 155.836 125.767 155.404 125.351C154.972 124.935 154.652 124.479 154.444 123.983C154.252 123.487 154.156 122.999 154.156 122.519C154.156 122.087 154.244 121.799 154.42 121.655C154.612 121.511 154.924 121.439 155.356 121.439C155.868 121.439 156.212 121.519 156.388 121.679C156.564 121.823 156.652 122.063 156.652 122.399C156.652 122.655 156.708 122.911 156.82 123.167C156.948 123.407 157.124 123.631 157.348 123.839C157.572 124.031 157.86 124.191 158.212 124.319C158.58 124.431 159.004 124.487 159.484 124.487C160.476 124.487 161.204 124.255 161.668 123.791C162.148 123.311 162.388 122.551 162.388 121.511V121.055C162.388 120.095 162.116 119.423 161.572 119.039C161.044 118.639 160.348 118.439 159.484 118.439C159.18 118.439 158.964 118.335 158.836 118.127C158.708 117.903 158.644 117.671 158.644 117.431C158.644 117.159 158.708 116.919 158.836 116.711C158.964 116.503 159.172 116.399 159.46 116.399C159.956 116.399 160.388 116.335 160.756 116.207C161.14 116.063 161.436 115.799 161.644 115.415C161.852 115.031 161.956 114.479 161.956 113.759C161.956 112.879 161.748 112.247 161.332 111.863C160.932 111.479 160.34 111.287 159.556 111.287C159.076 111.287 158.676 111.343 158.356 111.455C158.036 111.567 157.78 111.719 157.588 111.911C157.396 112.103 157.26 112.311 157.18 112.535C157.1 112.759 157.06 112.999 157.06 113.255C157.06 113.559 156.972 113.807 156.796 113.999C156.636 114.191 156.324 114.287 155.86 114.287C155.492 114.287 155.212 114.255 155.02 114.191C154.828 114.127 154.7 114.007 154.636 113.831C154.572 113.655 154.54 113.415 154.54 113.111C154.54 112.727 154.62 112.303 154.78 111.839C154.94 111.359 155.204 110.911 155.572 110.495C155.956 110.063 156.476 109.719 157.132 109.463C157.788 109.191 158.604 109.055 159.58 109.055C160.524 109.055 161.356 109.191 162.076 109.463C162.796 109.735 163.364 110.183 163.78 110.807C164.196 111.431 164.404 112.271 164.404 113.327C164.404 114.335 164.228 115.191 163.876 115.895C163.54 116.583 163.076 117.063 162.484 117.335C163.188 117.607 163.772 118.039 164.236 118.631C164.7 119.223 164.932 120.031 164.932 121.055V121.511C164.932 122.775 164.684 123.791 164.188 124.559C163.708 125.327 163.052 125.887 162.22 126.239C161.388 126.575 160.468 126.743 159.46 126.743ZM178.708 126.599C178.388 126.599 178.092 126.527 177.82 126.383C177.564 126.239 177.436 126.031 177.436 125.759V122.663H171.556C171.284 122.663 171.068 122.583 170.908 122.423C170.748 122.247 170.668 122.015 170.668 121.727C170.668 121.647 170.676 121.559 170.692 121.463C170.724 121.367 170.764 121.279 170.812 121.199L176.596 109.751C176.74 109.495 176.908 109.319 177.1 109.223C177.308 109.111 177.516 109.055 177.724 109.055C177.884 109.055 178.06 109.095 178.252 109.175C178.444 109.255 178.612 109.367 178.756 109.511C178.9 109.655 178.972 109.831 178.972 110.039C178.972 110.135 178.94 110.263 178.876 110.423L173.908 120.287H177.436V116.975C177.436 116.671 177.564 116.455 177.82 116.327C178.092 116.199 178.388 116.135 178.708 116.135C179.028 116.135 179.316 116.199 179.572 116.327C179.844 116.455 179.98 116.671 179.98 116.975V120.287H181.18C181.468 120.287 181.676 120.415 181.804 120.671C181.948 120.911 182.02 121.183 182.02 121.487C182.02 121.775 181.932 122.047 181.756 122.303C181.596 122.543 181.404 122.663 181.18 122.663H179.98V125.759C179.98 126.031 179.844 126.239 179.572 126.383C179.316 126.527 179.028 126.599 178.708 126.599ZM188.173 126.743C187.021 126.743 186.037 126.543 185.221 126.143C184.421 125.743 183.813 125.223 183.397 124.583C182.981 123.927 182.773 123.231 182.773 122.495C182.773 122.031 182.885 121.719 183.109 121.559C183.333 121.399 183.637 121.319 184.021 121.319C184.549 121.319 184.893 121.415 185.053 121.607C185.229 121.799 185.317 122.039 185.317 122.327C185.317 122.775 185.437 123.167 185.677 123.503C185.933 123.823 186.277 124.071 186.709 124.247C187.141 124.407 187.613 124.487 188.125 124.487C189.021 124.487 189.725 124.247 190.237 123.767C190.749 123.271 191.005 122.503 191.005 121.463V121.007C191.005 119.983 190.749 119.223 190.237 118.727C189.725 118.231 189.029 117.983 188.149 117.983H184.693C184.261 117.983 183.965 117.895 183.805 117.719C183.661 117.527 183.589 117.287 183.589 116.999C183.589 116.887 183.589 116.791 183.589 116.711C183.605 116.615 183.621 116.519 183.637 116.423L184.189 109.895C184.221 109.639 184.277 109.439 184.357 109.295C184.453 109.135 184.589 109.055 184.765 109.055H191.893C192.165 109.055 192.365 109.175 192.493 109.415C192.621 109.639 192.685 109.895 192.685 110.183C192.685 110.471 192.621 110.735 192.493 110.975C192.365 111.199 192.165 111.311 191.893 111.311H186.349L186.013 115.967H188.149C189.173 115.967 190.085 116.127 190.885 116.447C191.701 116.767 192.349 117.303 192.829 118.055C193.309 118.791 193.549 119.775 193.549 121.007V121.463C193.549 122.743 193.301 123.775 192.805 124.559C192.325 125.327 191.677 125.887 190.861 126.239C190.061 126.575 189.165 126.743 188.173 126.743ZM200.751 126.743C199.743 126.743 198.831 126.567 198.015 126.215C197.199 125.863 196.551 125.295 196.071 124.511C195.591 123.727 195.351 122.687 195.351 121.391V114.407C195.351 113.111 195.591 112.071 196.071 111.287C196.567 110.503 197.231 109.935 198.063 109.583C198.895 109.231 199.831 109.055 200.871 109.055C201.767 109.055 202.543 109.183 203.199 109.439C203.871 109.679 204.423 110.007 204.855 110.423C205.287 110.839 205.607 111.303 205.815 111.815C206.023 112.327 206.127 112.831 206.127 113.327C206.127 113.743 206.031 114.031 205.839 114.191C205.647 114.335 205.343 114.407 204.927 114.407C204.591 114.407 204.287 114.343 204.015 114.215C203.743 114.071 203.607 113.815 203.607 113.447C203.607 112.999 203.479 112.623 203.223 112.319C202.967 111.999 202.623 111.751 202.191 111.575C201.775 111.399 201.311 111.311 200.799 111.311C199.887 111.311 199.175 111.567 198.663 112.079C198.151 112.575 197.895 113.351 197.895 114.407V117.431C198.295 116.935 198.783 116.583 199.359 116.375C199.951 116.167 200.575 116.063 201.231 116.063C202.143 116.063 202.967 116.215 203.703 116.519C204.439 116.807 205.023 117.311 205.455 118.031C205.903 118.735 206.127 119.711 206.127 120.959V121.391C206.127 122.687 205.887 123.727 205.407 124.511C204.943 125.295 204.303 125.863 203.487 126.215C202.671 126.567 201.759 126.743 200.751 126.743ZM200.751 124.631C201.647 124.631 202.343 124.383 202.839 123.887C203.335 123.391 203.583 122.607 203.583 121.535V121.127C203.583 120.023 203.335 119.247 202.839 118.799C202.343 118.335 201.639 118.103 200.727 118.103C199.879 118.103 199.191 118.319 198.663 118.751C198.151 119.167 197.895 119.887 197.895 120.911V121.535C197.895 122.607 198.143 123.391 198.639 123.887C199.151 124.383 199.855 124.631 200.751 124.631ZM210.665 126.671C210.409 126.671 210.153 126.623 209.897 126.527C209.657 126.415 209.457 126.263 209.297 126.071C209.153 125.879 209.081 125.663 209.081 125.423C209.081 125.279 209.121 125.119 209.201 124.943L215.801 112.799V111.311H210.113V113.567C210.113 113.807 209.977 114.007 209.705 114.167C209.449 114.327 209.153 114.407 208.817 114.407C208.481 114.407 208.185 114.327 207.929 114.167C207.689 114.007 207.569 113.807 207.569 113.567V109.895C207.569 109.687 207.681 109.495 207.905 109.319C208.145 109.143 208.409 109.055 208.697 109.055H217.217C217.473 109.055 217.721 109.143 217.961 109.319C218.217 109.495 218.345 109.687 218.345 109.895V112.367C218.345 112.559 218.297 112.791 218.201 113.063C218.105 113.319 218.001 113.559 217.889 113.783L211.433 126.287C211.289 126.543 211.033 126.671 210.665 126.671Z" fill="white"/>
<path d="M23.896 170C23.672 170 23.432 169.952 23.176 169.856C22.92 169.76 22.712 169.64 22.552 169.496C22.392 169.336 22.312 169.152 22.312 168.944C22.312 168.896 22.32 168.824 22.336 168.728L27.112 153.176C27.208 152.888 27.408 152.672 27.712 152.528C28.032 152.384 28.368 152.312 28.72 152.312C29.088 152.312 29.424 152.384 29.728 152.528C30.048 152.672 30.256 152.888 30.352 153.176L35.104 168.728C35.136 168.824 35.152 168.896 35.152 168.944C35.152 169.136 35.064 169.312 34.888 169.472C34.728 169.632 34.52 169.76 34.264 169.856C34.024 169.952 33.784 170 33.544 170C33.336 170 33.152 169.96 32.992 169.88C32.848 169.8 32.744 169.664 32.68 169.472L31.696 166.064H25.744L24.784 169.472C24.736 169.664 24.624 169.8 24.448 169.88C24.288 169.96 24.104 170 23.896 170ZM26.32 164.024H31.12L28.72 155.792L26.32 164.024ZM38.3091 170C37.9891 170 37.6931 169.928 37.4211 169.784C37.1651 169.64 37.0371 169.432 37.0371 169.16V153.296C37.0371 152.992 37.1651 152.776 37.4211 152.648C37.6931 152.52 37.9891 152.456 38.3091 152.456C38.6131 152.456 38.8691 152.504 39.0771 152.6C39.3011 152.68 39.5011 152.824 39.6771 153.032C39.8531 153.24 40.0371 153.528 40.2291 153.896L45.5571 164.288V153.272C45.5571 152.984 45.6851 152.776 45.9411 152.648C46.2131 152.52 46.5091 152.456 46.8291 152.456C47.1491 152.456 47.4371 152.52 47.6931 152.648C47.9651 152.776 48.1011 152.984 48.1011 153.272V169.16C48.1011 169.432 47.9651 169.64 47.6931 169.784C47.4371 169.928 47.1491 170 46.8291 170C46.5091 170 46.2211 169.92 45.9651 169.76C45.7091 169.6 45.4931 169.368 45.3171 169.064L39.5811 158.144V169.16C39.5811 169.432 39.4451 169.64 39.1731 169.784C38.9171 169.928 38.6291 170 38.3091 170ZM51.5757 170C51.3517 170 51.1117 169.952 50.8557 169.856C50.5997 169.76 50.3917 169.64 50.2317 169.496C50.0717 169.336 49.9917 169.152 49.9917 168.944C49.9917 168.896 49.9997 168.824 50.0157 168.728L54.7917 153.176C54.8877 152.888 55.0877 152.672 55.3917 152.528C55.7117 152.384 56.0477 152.312 56.3997 152.312C56.7677 152.312 57.1037 152.384 57.4077 152.528C57.7277 152.672 57.9357 152.888 58.0317 153.176L62.7837 168.728C62.8157 168.824 62.8317 168.896 62.8317 168.944C62.8317 169.136 62.7437 169.312 62.5677 169.472C62.4077 169.632 62.1997 169.76 61.9437 169.856C61.7037 169.952 61.4637 170 61.2237 170C61.0157 170 60.8317 169.96 60.6717 169.88C60.5277 169.8 60.4237 169.664 60.3597 169.472L59.3757 166.064H53.4237L52.4637 169.472C52.4157 169.664 52.3037 169.8 52.1277 169.88C51.9677 169.96 51.7837 170 51.5757 170ZM53.9997 164.024H58.7997L56.3997 155.792L53.9997 164.024ZM65.9888 170C65.6688 170 65.3728 169.928 65.1008 169.784C64.8448 169.64 64.7168 169.432 64.7168 169.16V153.728C64.7168 153.248 64.8448 152.92 65.1008 152.744C65.3728 152.552 65.6688 152.456 65.9888 152.456C66.2928 152.456 66.5568 152.504 66.7808 152.6C67.0048 152.68 67.2128 152.824 67.4048 153.032C67.5968 153.24 67.7968 153.528 68.0048 153.896L71.3648 160.256L74.7728 153.896C74.9808 153.528 75.1728 153.24 75.3488 153.032C75.5408 152.824 75.7488 152.68 75.9728 152.6C76.1968 152.504 76.4608 152.456 76.7648 152.456C77.1008 152.456 77.3968 152.552 77.6528 152.744C77.9088 152.92 78.0368 153.248 78.0368 153.728V169.16C78.0368 169.432 77.9008 169.64 77.6288 169.784C77.3728 169.928 77.0848 170 76.7648 170C76.4448 170 76.1488 169.928 75.8768 169.784C75.6208 169.64 75.4928 169.432 75.4928 169.16V157.64L72.2768 163.592C72.1488 163.8 72.0048 163.952 71.8448 164.048C71.6848 164.128 71.5168 164.168 71.3408 164.168C71.1968 164.168 71.0448 164.128 70.8848 164.048C70.7248 163.968 70.5888 163.816 70.4768 163.592L67.2608 157.496V169.16C67.2608 169.432 67.1248 169.64 66.8528 169.784C66.5968 169.928 66.3088 170 65.9888 170ZM87.2701 170C86.9501 170 86.6541 169.928 86.3821 169.784C86.1261 169.64 85.9981 169.432 85.9981 169.16V153.272C85.9981 153.048 86.0861 152.856 86.2621 152.696C86.4541 152.536 86.6941 152.456 86.9821 152.456H91.6621C92.6381 152.456 93.5261 152.632 94.3261 152.984C95.1261 153.32 95.7581 153.88 96.2221 154.664C96.6861 155.432 96.9181 156.456 96.9181 157.736V157.928C96.9181 159.208 96.6781 160.24 96.1981 161.024C95.7341 161.808 95.0861 162.376 94.2541 162.728C93.4381 163.064 92.5261 163.232 91.5181 163.232H88.5421V169.16C88.5421 169.432 88.4061 169.64 88.1341 169.784C87.8781 169.928 87.5901 170 87.2701 170ZM88.5421 161.216H91.5181C92.4141 161.216 93.1101 160.96 93.6061 160.448C94.1181 159.936 94.3741 159.152 94.3741 158.096V157.808C94.3741 156.752 94.1181 155.976 93.6061 155.48C93.1101 154.968 92.4141 154.712 91.5181 154.712H88.5421V161.216ZM108.556 170.072C108.348 170.072 108.156 170 107.98 169.856C107.82 169.712 107.684 169.536 107.572 169.328L104.044 162.464H101.644V169.16C101.644 169.432 101.508 169.64 101.236 169.784C100.98 169.928 100.692 170 100.372 170C100.052 170 99.7556 169.928 99.4836 169.784C99.2276 169.64 99.0996 169.432 99.0996 169.16V153.272C99.0996 153.048 99.1716 152.856 99.3156 152.696C99.4756 152.536 99.6916 152.456 99.9636 152.456H104.524C105.532 152.456 106.452 152.608 107.284 152.912C108.116 153.2 108.78 153.704 109.276 154.424C109.772 155.128 110.02 156.104 110.02 157.352C110.02 158.312 109.868 159.112 109.564 159.752C109.276 160.392 108.876 160.904 108.364 161.288C107.868 161.656 107.3 161.928 106.66 162.104L110.02 168.416C110.052 168.464 110.076 168.528 110.092 168.608C110.108 168.672 110.116 168.728 110.116 168.776C110.116 168.984 110.036 169.192 109.876 169.4C109.716 169.592 109.516 169.752 109.276 169.88C109.052 170.008 108.812 170.072 108.556 170.072ZM101.644 160.424H104.524C105.42 160.424 106.132 160.208 106.66 159.776C107.204 159.344 107.476 158.608 107.476 157.568C107.476 156.528 107.204 155.792 106.66 155.36C106.132 154.928 105.42 154.712 104.524 154.712H101.644V160.424ZM112.677 170C112.453 170 112.213 169.952 111.957 169.856C111.701 169.76 111.493 169.64 111.333 169.496C111.173 169.336 111.093 169.152 111.093 168.944C111.093 168.896 111.101 168.824 111.117 168.728L115.893 153.176C115.989 152.888 116.189 152.672 116.493 152.528C116.813 152.384 117.149 152.312 117.501 152.312C117.869 152.312 118.205 152.384 118.509 152.528C118.829 152.672 119.037 152.888 119.133 153.176L123.885 168.728C123.917 168.824 123.933 168.896 123.933 168.944C123.933 169.136 123.845 169.312 123.669 169.472C123.509 169.632 123.301 169.76 123.045 169.856C122.805 169.952 122.565 170 122.325 170C122.117 170 121.933 169.96 121.773 169.88C121.629 169.8 121.525 169.664 121.461 169.472L120.477 166.064H114.525L113.565 169.472C113.517 169.664 113.405 169.8 113.229 169.88C113.069 169.96 112.885 170 112.677 170ZM115.101 164.024H119.901L117.501 155.792L115.101 164.024ZM126.946 170C126.61 170 126.338 169.92 126.13 169.76C125.922 169.6 125.818 169.408 125.818 169.184V153.272C125.818 153.048 125.922 152.856 126.13 152.696C126.338 152.536 126.61 152.456 126.946 152.456H131.194C132.202 152.456 133.114 152.632 133.93 152.984C134.762 153.336 135.41 153.904 135.874 154.688C136.354 155.472 136.594 156.512 136.594 157.808V164.648C136.594 165.944 136.354 166.984 135.874 167.768C135.41 168.552 134.762 169.12 133.93 169.472C133.114 169.824 132.202 170 131.194 170H126.946ZM128.362 167.744H131.194C132.09 167.744 132.786 167.496 133.282 167C133.794 166.488 134.05 165.704 134.05 164.648V157.808C134.05 156.752 133.794 155.976 133.282 155.48C132.786 154.968 132.09 154.712 131.194 154.712H128.362V167.744ZM140.848 170C140.528 170 140.232 169.928 139.96 169.784C139.704 169.64 139.576 169.432 139.576 169.16V153.272C139.576 152.984 139.704 152.776 139.96 152.648C140.232 152.52 140.528 152.456 140.848 152.456C141.168 152.456 141.456 152.52 141.712 152.648C141.984 152.776 142.12 152.984 142.12 153.272V159.896H148.096V153.272C148.096 152.984 148.224 152.776 148.48 152.648C148.752 152.52 149.048 152.456 149.368 152.456C149.688 152.456 149.976 152.52 150.232 152.648C150.504 152.776 150.64 152.984 150.64 153.272V169.16C150.64 169.432 150.504 169.64 150.232 169.784C149.976 169.928 149.688 170 149.368 170C149.048 170 148.752 169.928 148.48 169.784C148.224 169.64 148.096 169.432 148.096 169.16V161.912H142.12V169.16C142.12 169.432 141.984 169.64 141.712 169.784C141.456 169.928 141.168 170 140.848 170ZM154.115 170C153.891 170 153.651 169.952 153.395 169.856C153.139 169.76 152.931 169.64 152.771 169.496C152.611 169.336 152.531 169.152 152.531 168.944C152.531 168.896 152.539 168.824 152.555 168.728L157.331 153.176C157.427 152.888 157.627 152.672 157.931 152.528C158.251 152.384 158.587 152.312 158.939 152.312C159.307 152.312 159.643 152.384 159.947 152.528C160.267 152.672 160.475 152.888 160.571 153.176L165.323 168.728C165.355 168.824 165.371 168.896 165.371 168.944C165.371 169.136 165.283 169.312 165.107 169.472C164.947 169.632 164.739 169.76 164.483 169.856C164.243 169.952 164.003 170 163.763 170C163.555 170 163.371 169.96 163.211 169.88C163.067 169.8 162.963 169.664 162.899 169.472L161.915 166.064H155.963L155.003 169.472C154.955 169.664 154.843 169.8 154.667 169.88C154.507 169.96 154.323 170 154.115 170ZM156.539 164.024H161.339L158.939 155.792L156.539 164.024ZM168.528 170C168.208 170 167.912 169.928 167.64 169.784C167.384 169.64 167.256 169.432 167.256 169.16V153.296C167.256 152.992 167.384 152.776 167.64 152.648C167.912 152.52 168.208 152.456 168.528 152.456C168.832 152.456 169.088 152.504 169.296 152.6C169.52 152.68 169.72 152.824 169.896 153.032C170.072 153.24 170.256 153.528 170.448 153.896L175.776 164.288V153.272C175.776 152.984 175.904 152.776 176.16 152.648C176.432 152.52 176.728 152.456 177.048 152.456C177.368 152.456 177.656 152.52 177.912 152.648C178.184 152.776 178.32 152.984 178.32 153.272V169.16C178.32 169.432 178.184 169.64 177.912 169.784C177.656 169.928 177.368 170 177.048 170C176.728 170 176.44 169.92 176.184 169.76C175.928 169.6 175.712 169.368 175.536 169.064L169.8 158.144V169.16C169.8 169.432 169.664 169.64 169.392 169.784C169.136 169.928 168.848 170 168.528 170Z" fill="white"/>
<path d="M261.795 170.178C260.787 170.178 259.875 170.002 259.059 169.65C258.243 169.298 257.595 168.73 257.115 167.946C256.651 167.162 256.419 166.122 256.419 164.826V157.842C256.419 156.546 256.651 155.506 257.115 154.722C257.595 153.938 258.243 153.37 259.059 153.018C259.875 152.666 260.787 152.49 261.795 152.49C262.803 152.49 263.715 152.666 264.531 153.018C265.363 153.37 266.011 153.938 266.475 154.722C266.955 155.506 267.195 156.546 267.195 157.842V164.826C267.195 166.122 266.955 167.162 266.475 167.946C266.011 168.73 265.363 169.298 264.531 169.65C263.715 170.002 262.803 170.178 261.795 170.178ZM261.795 167.922C262.691 167.922 263.387 167.674 263.883 167.178C264.395 166.666 264.651 165.882 264.651 164.826V157.842C264.651 156.786 264.395 156.01 263.883 155.514C263.387 155.002 262.691 154.746 261.795 154.746C260.899 154.746 260.203 155.002 259.707 155.514C259.211 156.01 258.963 156.786 258.963 157.842V164.826C258.963 165.882 259.211 166.666 259.707 167.178C260.203 167.674 260.899 167.922 261.795 167.922ZM261.819 162.378C261.515 162.378 261.267 162.282 261.075 162.09C260.883 161.882 260.787 161.634 260.787 161.346C260.787 161.042 260.883 160.802 261.075 160.626C261.267 160.434 261.515 160.338 261.819 160.338C262.123 160.338 262.363 160.434 262.539 160.626C262.731 160.802 262.827 161.042 262.827 161.346C262.827 161.634 262.731 161.882 262.539 162.09C262.363 162.282 262.123 162.378 261.819 162.378ZM274.967 170.178C273.959 170.178 273.047 170.002 272.231 169.65C271.415 169.298 270.767 168.73 270.287 167.946C269.823 167.162 269.591 166.122 269.591 164.826V157.842C269.591 156.546 269.823 155.506 270.287 154.722C270.767 153.938 271.415 153.37 272.231 153.018C273.047 152.666 273.959 152.49 274.967 152.49C275.975 152.49 276.887 152.666 277.703 153.018C278.535 153.37 279.183 153.938 279.647 154.722C280.127 155.506 280.367 156.546 280.367 157.842V164.826C280.367 166.122 280.127 167.162 279.647 167.946C279.183 168.73 278.535 169.298 277.703 169.65C276.887 170.002 275.975 170.178 274.967 170.178ZM274.967 167.922C275.863 167.922 276.559 167.674 277.055 167.178C277.567 166.666 277.823 165.882 277.823 164.826V157.842C277.823 156.786 277.567 156.01 277.055 155.514C276.559 155.002 275.863 154.746 274.967 154.746C274.071 154.746 273.375 155.002 272.879 155.514C272.383 156.01 272.135 156.786 272.135 157.842V164.826C272.135 165.882 272.383 166.666 272.879 167.178C273.375 167.674 274.071 167.922 274.967 167.922ZM274.991 162.378C274.687 162.378 274.439 162.282 274.247 162.09C274.055 161.882 273.959 161.634 273.959 161.346C273.959 161.042 274.055 160.802 274.247 160.626C274.439 160.434 274.687 160.338 274.991 160.338C275.295 160.338 275.535 160.434 275.711 160.626C275.903 160.802 275.999 161.042 275.999 161.346C275.999 161.634 275.903 161.882 275.711 162.09C275.535 162.282 275.295 162.378 274.991 162.378ZM282.65 170.874C282.378 170.874 282.154 170.778 281.978 170.586C281.802 170.41 281.714 170.21 281.714 169.986C281.714 169.858 281.746 169.738 281.81 169.626L290.642 151.986C290.77 151.698 291.002 151.554 291.338 151.554C291.578 151.554 291.802 151.642 292.01 151.818C292.234 151.978 292.346 152.194 292.346 152.466C292.346 152.61 292.322 152.738 292.274 152.85L283.466 170.418C283.402 170.562 283.29 170.674 283.13 170.754C282.986 170.834 282.826 170.874 282.65 170.874ZM299.014 170.178C298.006 170.178 297.094 170.002 296.278 169.65C295.462 169.298 294.814 168.73 294.334 167.946C293.87 167.162 293.638 166.122 293.638 164.826V157.842C293.638 156.546 293.87 155.506 294.334 154.722C294.814 153.938 295.462 153.37 296.278 153.018C297.094 152.666 298.006 152.49 299.014 152.49C300.022 152.49 300.934 152.666 301.75 153.018C302.582 153.37 303.23 153.938 303.694 154.722C304.174 155.506 304.414 156.546 304.414 157.842V164.826C304.414 166.122 304.174 167.162 303.694 167.946C303.23 168.73 302.582 169.298 301.75 169.65C300.934 170.002 300.022 170.178 299.014 170.178ZM299.014 167.922C299.91 167.922 300.606 167.674 301.102 167.178C301.614 166.666 301.87 165.882 301.87 164.826V157.842C301.87 156.786 301.614 156.01 301.102 155.514C300.606 155.002 299.91 154.746 299.014 154.746C298.118 154.746 297.422 155.002 296.926 155.514C296.43 156.01 296.182 156.786 296.182 157.842V164.826C296.182 165.882 296.43 166.666 296.926 167.178C297.422 167.674 298.118 167.922 299.014 167.922ZM299.038 162.378C298.734 162.378 298.486 162.282 298.294 162.09C298.102 161.882 298.006 161.634 298.006 161.346C298.006 161.042 298.102 160.802 298.294 160.626C298.486 160.434 298.734 160.338 299.038 160.338C299.342 160.338 299.582 160.434 299.758 160.626C299.95 160.802 300.046 161.042 300.046 161.346C300.046 161.634 299.95 161.882 299.758 162.09C299.582 162.282 299.342 162.378 299.038 162.378ZM312.185 170.178C311.177 170.178 310.265 170.002 309.449 169.65C308.633 169.298 307.985 168.73 307.505 167.946C307.041 167.162 306.809 166.122 306.809 164.826V157.842C306.809 156.546 307.041 155.506 307.505 154.722C307.985 153.938 308.633 153.37 309.449 153.018C310.265 152.666 311.177 152.49 312.185 152.49C313.193 152.49 314.105 152.666 314.921 153.018C315.753 153.37 316.401 153.938 316.865 154.722C317.345 155.506 317.585 156.546 317.585 157.842V164.826C317.585 166.122 317.345 167.162 316.865 167.946C316.401 168.73 315.753 169.298 314.921 169.65C314.105 170.002 313.193 170.178 312.185 170.178ZM312.185 167.922C313.081 167.922 313.777 167.674 314.273 167.178C314.785 166.666 315.041 165.882 315.041 164.826V157.842C315.041 156.786 314.785 156.01 314.273 155.514C313.777 155.002 313.081 154.746 312.185 154.746C311.289 154.746 310.593 155.002 310.097 155.514C309.601 156.01 309.353 156.786 309.353 157.842V164.826C309.353 165.882 309.601 166.666 310.097 167.178C310.593 167.674 311.289 167.922 312.185 167.922ZM312.209 162.378C311.905 162.378 311.657 162.282 311.465 162.09C311.273 161.882 311.177 161.634 311.177 161.346C311.177 161.042 311.273 160.802 311.465 160.626C311.657 160.434 311.905 160.338 312.209 160.338C312.513 160.338 312.753 160.434 312.929 160.626C313.121 160.802 313.217 161.042 313.217 161.346C313.217 161.634 313.121 161.882 312.929 162.09C312.753 162.282 312.513 162.378 312.209 162.378Z" fill="white"/>
<defs>
<linearGradient id="paint0_linear_142_3915" x1="169.697" y1="0" x2="169.697" y2="200" gradientUnits="userSpaceOnUse">
<stop stop-color="#ACACAC"/>
<stop offset="1" stop-color="#4F4F4F"/>
</linearGradient>
<linearGradient id="paint1_linear_142_3915" x1="171.212" y1="0" x2="171.212" y2="200" gradientUnits="userSpaceOnUse">
<stop stop-color="#9A9A9A"/>
<stop offset="1" stop-color="#5A5A5A"/>
</linearGradient>
<linearGradient id="paint2_linear_142_3915" x1="46.4646" y1="21.8855" x2="46.4646" y2="52.1885" gradientUnits="userSpaceOnUse">
<stop stop-color="white"/>
<stop offset="1" stop-color="white" stop-opacity="0"/>
</linearGradient>
</defs>
</svg>
