<svg width="18" height="18" viewBox="0 0 18 18" fill="none" xmlns="http://www.w3.org/2000/svg">
<path opacity="0.4" d="M16.9925 15.9534H11.2982C10.7426 15.9534 10.2908 16.4124 10.2908 16.9767C10.2908 17.5422 10.7426 18.0001 11.2982 18.0001H16.9925C17.548 18.0001 17.9999 17.5422 17.9999 16.9767C17.9999 16.4124 17.548 15.9534 16.9925 15.9534Z" fill="url(#paint0_linear_202_2306)"/>
<path d="M7.30902 3.90385L12.7049 8.26394C12.835 8.36821 12.8573 8.55956 12.7557 8.69286L6.35874 17.0282C5.95662 17.5431 5.36402 17.8344 4.72908 17.8452L1.23696 17.8882C1.05071 17.8903 0.887748 17.7613 0.845419 17.5764L0.0517547 14.1258C-0.0858138 13.4915 0.0517547 12.8358 0.453878 12.3306L6.88256 3.95545C6.98627 3.82108 7.1778 3.79743 7.30902 3.90385Z" fill="url(#paint1_linear_202_2306)"/>
<path opacity="0.4" d="M15.1205 5.66544L14.0803 6.96401C13.9755 7.09623 13.7872 7.11773 13.657 7.01238C12.3924 5.98901 9.1543 3.36285 8.25587 2.63509C8.12465 2.52759 8.10666 2.33625 8.21248 2.20295L9.21567 0.957057C10.1257 -0.214663 11.7131 -0.322161 12.9935 0.699064L14.4644 1.87078C15.0676 2.34377 15.4698 2.96726 15.6073 3.62299C15.7661 4.3443 15.5967 5.0527 15.1205 5.66544Z" fill="url(#paint2_linear_202_2306)"/>
<defs>
<linearGradient id="paint0_linear_202_2306" x1="10.2908" y1="15.8277" x2="17.0888" y2="19.7948" gradientUnits="userSpaceOnUse">
<stop stop-color="#FECF3E"/>
<stop offset="1" stop-color="#FECF3E"/>
</linearGradient>
<linearGradient id="paint1_linear_202_2306" x1="-1.81785e-08" y1="2.97438" x2="14.8571" y2="5.07448" gradientUnits="userSpaceOnUse">
<stop stop-color="#FECF3E"/>
<stop offset="1" stop-color="#FECF3E"/>
</linearGradient>
<linearGradient id="paint2_linear_202_2306" x1="8.1438" y1="-0.434688" x2="16.8004" y2="0.990314" gradientUnits="userSpaceOnUse">
<stop stop-color="#FEAD1D"/>
<stop offset="1" stop-color="#FECF3E"/>
</linearGradient>
</defs>
</svg>
