<svg width="79" height="79" viewBox="0 0 79 79" fill="none" xmlns="http://www.w3.org/2000/svg">
<circle cx="62.5418" cy="20.3156" r="1.93178" fill="#084523"/>
<circle cx="13.2812" cy="16.4522" r="0.965892" fill="#084523"/>
<circle cx="61.5759" cy="70.5421" r="0.965892" fill="#084523"/>
<circle cx="13.7642" cy="66.1956" r="4.34651" fill="#084523"/>
<path d="M25.2507 17.3383H25.7083H27.0576H32.2519L51.3767 17.3242H51.397V17.343C51.789 18.2767 52.1228 19.2337 52.3965 20.2087C52.6838 21.2295 52.8731 22.2754 52.9618 23.3321C53.0539 24.4368 52.9972 25.5488 52.7931 26.6383C52.569 27.7677 52.1629 28.8532 51.5906 29.8523C51.2941 30.3619 50.9589 30.848 50.588 31.3063C50.2094 31.7707 49.7998 32.209 49.362 32.6181C48.9187 33.0347 48.4543 33.4283 47.9706 33.7972C47.4864 34.172 46.9804 34.525 46.4869 34.8998C46.2402 35.0856 46.0184 35.2949 45.7779 35.5042C45.5374 35.7135 45.2985 35.9087 45.0517 36.1054C44.5598 36.499 44.0631 36.8863 43.5946 37.322C42.6168 38.1696 41.8653 39.2473 41.4082 40.458C41.1886 41.0789 41.05 41.7256 40.9959 42.382C40.9819 42.5382 40.96 42.71 40.9538 42.8755C40.9475 43.041 40.9413 43.2066 40.9538 43.3721C40.9573 43.7045 40.9908 44.0359 41.0537 44.3622C41.1775 45.0236 41.4475 45.6489 41.8439 46.1926C42.2519 46.7361 42.7139 47.2369 43.2229 47.6871C44.2334 48.6101 45.3063 49.4925 46.3323 50.4451C47.3584 51.3978 48.3625 52.391 49.3308 53.4421C49.8248 53.9623 50.2869 54.512 50.7145 55.0881C51.1447 55.6714 51.5185 56.2942 51.8311 56.9481C52.4632 58.2735 52.8515 59.7018 52.9774 61.1648C53.1048 62.648 53.0175 64.1418 52.7182 65.6001C52.5727 66.3368 52.3818 67.0639 52.1466 67.7771C51.9154 68.4963 51.6336 69.1982 51.3033 69.8776L51.2923 69.8995H24.6291L24.6182 69.8823C23.3701 68.0031 22.6046 65.8451 22.3896 63.5995C22.1733 61.4424 22.4897 59.2652 23.311 57.2589C24.0917 55.3412 25.2936 53.6236 26.828 52.2333C27.5726 51.576 28.3767 50.9894 29.2299 50.4811C30.0608 49.9657 30.8994 49.4878 31.6912 48.9662C32.4838 48.4708 33.2119 47.8791 33.8589 47.2046C34.4768 46.5422 34.9351 45.7473 35.1988 44.8807C35.43 44.0352 35.4663 43.1483 35.305 42.2867C35.151 41.4553 34.8736 40.6515 34.482 39.902C34.1075 39.1803 33.6584 38.4998 33.142 37.8717C32.6436 37.2692 32.1018 36.7039 31.521 36.1804C30.395 35.1434 29.2409 34.2361 28.2039 33.3037C27.6838 32.8352 27.1919 32.3667 26.7374 31.8872C26.297 31.4179 25.8909 30.9173 25.5224 30.3896C24.8563 29.4216 24.3427 28.3572 23.9997 27.2333C23.6993 26.2628 23.525 25.2576 23.4813 24.2426C23.4594 24.0115 23.4688 23.7835 23.4688 23.5602C23.4688 23.3368 23.4688 23.1198 23.4891 22.9089C23.5094 22.6981 23.5203 22.4919 23.5359 22.2842C23.5515 22.0765 23.5937 21.8907 23.6202 21.7017C23.7928 20.5513 24.1448 19.4352 24.6635 18.394C24.7337 18.2329 24.814 18.0764 24.904 17.9255L25.0961 17.5991C25.1976 17.4257 25.2522 17.3383 25.2522 17.3383L25.0961 17.6038L24.9102 17.9255C24.8224 18.0771 24.7432 18.2335 24.6728 18.394C24.1589 19.4377 23.8111 20.5553 23.6421 21.7064C23.6156 21.8938 23.5843 22.0875 23.5609 22.2858C23.5375 22.4841 23.5297 22.6918 23.514 22.9027C23.4984 23.1135 23.4984 23.3306 23.4969 23.5524C23.4953 23.7741 23.4891 24.0021 23.5109 24.2333C23.5561 25.2449 23.732 26.2465 24.0341 27.213C24.3767 28.3328 24.8897 29.3932 25.5552 30.3568C25.9228 30.8823 26.3283 31.3803 26.7687 31.8466C27.2216 32.3276 27.7135 32.7962 28.2336 33.2522C29.2705 34.1892 30.42 35.0872 31.5538 36.1257C32.1391 36.6531 32.6851 37.2225 33.1873 37.8296C33.7065 38.4622 34.1582 39.1474 34.5351 39.8739C34.9304 40.628 35.2104 41.4371 35.3659 42.2742C35.5295 43.145 35.4932 44.0416 35.2597 44.8964C34.9948 45.773 34.5321 46.5772 33.9073 47.2467C33.2571 47.9251 32.5259 48.521 31.7302 49.0209C30.9353 49.544 30.0967 50.0219 29.2674 50.5373C28.4178 51.0443 27.6169 51.6288 26.8749 52.2833C25.3499 53.6664 24.155 55.3742 23.3782 57.2808C22.5618 59.2769 22.2481 61.4429 22.4646 63.5886C22.6796 65.8214 23.4413 67.9668 24.6822 69.8354L24.651 69.8183H51.2658L51.2299 69.8401C51.5596 69.1625 51.8404 68.4621 52.0701 67.7443C52.304 67.0341 52.4939 66.3102 52.6385 65.5766C52.9365 64.1256 53.0233 62.6391 52.8962 61.1632C52.7727 59.7083 52.387 58.2876 51.7577 56.97C51.4473 56.3208 51.0766 55.7023 50.6505 55.1225C50.2239 54.5493 49.7639 54.0018 49.273 53.4827C48.31 52.4342 47.312 51.4368 46.2792 50.4904C45.2547 49.5393 44.1849 48.6585 43.1714 47.7309C42.6583 47.2769 42.1922 46.7725 41.7799 46.2254C41.3757 45.6751 41.0989 45.0419 40.9694 44.3716C40.9068 44.0404 40.8729 43.7045 40.8679 43.3674C40.8601 43.2003 40.8679 43.0332 40.8679 42.8661C40.8679 42.699 40.896 42.5335 40.9085 42.3679C40.9658 41.7076 41.1075 41.0573 41.3301 40.433C41.7912 39.2117 42.5497 38.1247 43.5368 37.2705C44.0054 36.8363 44.5067 36.4428 44.9986 36.0508C45.2454 35.854 45.4874 35.6557 45.7232 35.4526C45.9591 35.2496 46.1918 35.031 46.4354 34.8436C46.932 34.4688 47.4364 34.1158 47.919 33.7426C48.4013 33.3753 48.8647 32.9838 49.3074 32.5697C49.7423 32.1624 50.1497 31.7268 50.5271 31.2657C50.8951 30.809 51.2286 30.3256 51.525 29.8195C52.0941 28.8273 52.4981 27.7492 52.7213 26.6274C52.9244 25.5467 52.9817 24.4437 52.8915 23.3478C52.8043 22.2912 52.6165 21.2453 52.3309 20.2243C52.061 19.2467 51.7314 18.2865 51.3439 17.3492L51.3704 17.3664L32.2565 17.3523H27.0591H25.7067L25.2507 17.3383Z" fill="#263238"/>
<path d="M50.3147 24.5676C54.2346 25.2125 48.0549 32.1559 44.5551 34.8952C42.5249 36.4803 40.3541 38.2014 39.3921 40.5877C38.2989 43.2957 39.1094 46.3379 38.5815 49.0615C38.5645 49.1555 38.5126 49.2395 38.4362 49.2967C38.3598 49.3539 38.2646 49.3801 38.1697 49.37C38.0748 49.3599 37.9872 49.3143 37.9246 49.2423C37.8619 49.1703 37.8288 49.0773 37.8319 48.9819C37.8569 47.1937 37.81 45.4071 37.5196 43.6471C37.0995 41.1483 36.1406 38.6824 34.3961 36.8536C32.9671 35.359 31.0946 34.3673 29.572 32.9712C27.3481 30.9331 25.0633 28.3047 24.84 25.2969C24.84 25.2969 29.1097 21.8611 31.4804 22.2906C34.2509 22.7981 36.9776 27.0726 41.2692 26.5837C44.2552 26.2417 45.7686 23.8211 50.3147 24.5676Z" fill="#FECF3E"/>
<path d="M50.6629 61.7288C50.5645 60.7481 50.3021 59.6393 49.4323 59.177C48.906 58.8959 48.2641 58.9271 47.6863 59.0786C47.1084 59.2301 46.5665 59.494 45.9949 59.6642C44.8586 59.9984 43.6452 59.9595 42.5326 59.5534C41.469 59.1629 40.557 58.4602 39.5653 57.9011C38.5736 57.342 37.4226 56.9328 36.3232 57.2061C34.4273 57.6746 33.4403 59.961 31.5662 60.5123C30.7322 60.7559 29.8374 60.6185 28.9909 60.4279C28.1445 60.2374 27.2933 59.9891 26.4266 60.0219C25.7457 60.0469 25.0382 60.2827 24.5619 60.7481L24.5494 60.7621C24.4701 60.8398 24.398 60.9245 24.3339 61.0151C23.7529 61.796 23.6592 62.8314 23.8388 63.7778C24.0387 64.8382 24.5338 65.8174 25.0648 66.756C25.6895 67.8617 26.4016 68.9612 27.4355 69.6983C28.7129 70.6088 30.3168 69.981 31.8801 70.1043C35.5236 70.3917 39.4435 70.5869 43.0886 70.3058C45.0142 70.1496 46.8179 70.3651 48.3453 69.1829C49.4198 68.3521 50.1194 67.0996 50.4567 65.7846C50.7941 64.4697 50.7988 63.0797 50.6629 61.7288Z" fill="#FECF3E"/>
<g opacity="0.24">
<path opacity="0.24" d="M43.7851 59.8516C43.5806 60.1639 43.4915 60.5887 43.6899 60.9073C43.8882 61.2259 44.1584 61.5179 44.2427 61.8849C44.3786 62.4596 44.0319 63.0219 43.7742 63.5544C43.2973 64.5066 43.1172 65.58 43.2573 66.6357C43.405 67.6948 43.952 68.6574 44.7862 69.3265C45.1563 69.6123 45.6373 69.8341 46.084 69.6935C46.5041 69.5623 46.7743 69.136 46.8649 68.7034C46.9554 68.2708 46.8789 67.8257 46.8243 67.39C46.5699 65.3593 46.6226 63.3018 46.9804 61.2868C47.0398 60.951 47.096 60.5668 46.8836 60.2998C46.7304 60.1443 46.5358 60.0359 46.3229 59.9874C45.5108 59.7173 44.6347 60.0171 43.793 59.8578" fill="black"/>
</g>
<path d="M22.6973 71.0677C22.6973 71.0677 22.6239 69.8464 24.2169 69.1655H52.2107C52.2107 69.1655 53.6709 69.9058 53.8505 71.0396L22.6973 71.0677Z" fill="#455A64"/>
<path d="M51.6156 17.4869L51.5703 17.5072L25.2475 17.3385C25.2475 17.3385 25.1538 17.2792 25.0148 17.1683C24.8508 17.0397 24.731 16.863 24.6725 16.663C24.6139 16.4629 24.6195 16.2495 24.6884 16.0528C24.7573 15.8561 24.8861 15.6859 25.0567 15.5661C25.2273 15.4463 25.4311 15.3829 25.6395 15.3848L51.1892 15.591C52.2403 15.6003 52.5714 17.0371 51.6156 17.4869Z" fill="#455A64"/>
<g opacity="0.24">
<path opacity="0.24" d="M47.399 27.5288C47.4521 27.6303 47.2537 27.8411 46.8773 28.1847C46.501 28.5283 45.9403 28.9796 45.2438 29.5465C44.4075 30.2374 43.52 30.8639 42.5889 31.4206C42.0105 31.7555 41.4018 32.0352 40.771 32.2561C40.4292 32.3742 40.0802 32.4707 39.7262 32.545C39.3544 32.624 38.9768 32.6731 38.5971 32.6918C37.8277 32.7337 37.0574 32.6276 36.3279 32.3795C35.683 32.1449 35.0701 31.8301 34.5038 31.4424C33.9791 31.0957 33.5278 30.7521 33.0983 30.4226C32.6688 30.0931 32.2862 29.7761 31.9395 29.4762C30.5574 28.2784 29.8296 27.3976 29.9702 27.2273C30.1107 27.0571 31.0946 27.6115 32.6251 28.5486L33.8745 29.3138C34.3227 29.5855 34.8021 29.887 35.2925 30.1649C35.7791 30.4506 36.2948 30.6836 36.8308 30.8599C37.3793 31.0241 37.9521 31.0918 38.5237 31.0598C39.7231 30.9973 40.8866 30.5757 41.8939 30.0884C42.9012 29.6012 43.8133 29.0327 44.6035 28.5892C45.2289 28.2201 45.8827 27.9016 46.5588 27.6365C47.0538 27.4632 47.3537 27.4304 47.399 27.5288Z" fill="black"/>
</g>
<path d="M37.8506 52.3241C37.9612 52.2801 38.0847 52.2814 38.1944 52.3278C38.3041 52.3742 38.3911 52.4619 38.4365 52.572C38.482 52.682 38.4823 52.8056 38.4374 52.9158C38.3924 53.0261 38.3058 53.1143 38.1964 53.1612C38.0869 53.2081 37.9634 53.21 37.8525 53.1665C37.7417 53.123 37.6524 53.0376 37.6041 52.9287C37.5557 52.8199 37.5522 52.6964 37.5942 52.585C37.6363 52.4736 37.7205 52.3832 37.8287 52.3334" fill="#FECF3E"/>
<path d="M28.4366 31.8846C28.4023 31.8565 28.371 31.8251 28.3429 31.7909L28.0883 31.5129C27.9806 31.3895 27.8384 31.2458 27.6932 31.0631L27.1966 30.4384C27.0263 30.1979 26.8343 29.9387 26.6406 29.6576L26.3548 29.2031C26.3064 29.125 26.2549 29.0469 26.208 28.9642L26.0706 28.7112C25.6549 27.9746 25.3293 27.1907 25.1007 26.3764C24.871 25.5628 24.7472 24.7229 24.7322 23.8776C24.7322 23.6824 24.7431 23.4935 24.7462 23.3076C24.7462 23.2155 24.7462 23.1249 24.7587 23.0359C24.7712 22.9469 24.7775 22.8594 24.7868 22.7735C24.8071 22.6017 24.8196 22.4346 24.8431 22.2753C24.8665 22.116 24.8993 21.963 24.9258 21.8209C24.9696 21.5288 25.0476 21.2743 25.1023 21.04C25.132 20.9276 25.1554 20.8214 25.1851 20.7277L25.271 20.4668L25.3912 20.1092C25.4027 20.0666 25.4184 20.0253 25.4381 19.9858C25.4317 20.0294 25.4212 20.0723 25.4068 20.1139C25.3803 20.2045 25.3459 20.3247 25.3006 20.4762L25.2226 20.737C25.196 20.8323 25.1741 20.9385 25.146 21.0494C25.0961 21.2758 25.0227 21.5319 24.9899 21.8302C24.9649 21.9739 24.9399 22.1254 24.9133 22.2831C24.8868 22.4409 24.8805 22.6064 24.8618 22.7782C24.8618 22.8641 24.8446 22.95 24.8353 23.039C24.8259 23.128 24.8353 23.2186 24.8259 23.3092C24.8259 23.4935 24.8134 23.6809 24.8149 23.8745C24.8302 24.7148 24.9525 25.5498 25.1788 26.3592C25.4062 27.1675 25.7275 27.9464 26.1362 28.6799C26.1815 28.7643 26.2267 28.8486 26.2705 28.9329C26.3142 29.0173 26.3689 29.0891 26.4157 29.1703L26.6968 29.6248C26.8873 29.9121 27.0763 30.1714 27.2419 30.4056L27.7291 31.0303C27.8697 31.2162 28.0087 31.3614 28.1117 31.4895L28.3554 31.7784C28.3846 31.812 28.4118 31.8475 28.4366 31.8846Z" fill="#263238"/>
<path d="M26.9545 55.0852C26.9622 55.0672 26.9716 55.0499 26.9826 55.0337L27.0763 54.8869C27.1184 54.8213 27.17 54.7432 27.2325 54.6495L27.3308 54.4933C27.3699 54.4418 27.4152 54.3902 27.4605 54.3371L27.7728 53.9623C27.8931 53.8327 28.0305 53.6984 28.1757 53.5516C28.5125 53.2273 28.8704 52.9258 29.2471 52.6489C30.0763 52.0242 31.1461 51.3995 32.3049 50.6671C32.9142 50.2916 33.4999 49.879 34.0587 49.4318C34.6582 48.9543 35.1876 48.3949 35.6314 47.7701C36.4437 46.522 36.8851 45.069 36.9042 43.58C36.924 42.3664 36.7207 41.1595 36.3045 40.0193C36.0288 39.2499 35.6827 38.5075 35.2706 37.8017C35.1254 37.5502 35.0067 37.3597 34.9255 37.2301L34.8333 37.0833C34.813 37.0505 34.8037 37.0317 34.8037 37.0317C34.8176 37.0458 34.8297 37.0615 34.8396 37.0786L34.9395 37.2223C35.0254 37.3472 35.1488 37.5346 35.2972 37.786C35.722 38.4881 36.0777 39.2298 36.3591 40.0006C36.7865 41.1455 36.9983 42.3596 36.9838 43.5816C36.9772 43.9339 36.9485 44.2855 36.8979 44.6342C36.8473 44.9989 36.7706 45.3596 36.6684 45.7133C36.455 46.4624 36.1234 47.1725 35.686 47.817C35.2377 48.4486 34.7025 49.0137 34.0962 49.4958C33.5341 49.9435 32.9453 50.3565 32.333 50.7327C31.1695 51.4589 30.0982 52.0773 29.2689 52.6973C28.8923 52.9705 28.5335 53.2673 28.1945 53.586C28.0492 53.7312 27.9102 53.8624 27.7884 53.9904L27.4761 54.3574C27.4292 54.4137 27.3839 54.4652 27.3449 54.5136L27.2434 54.662L27.0872 54.8947L26.9873 55.0368C26.9776 55.0538 26.9667 55.07 26.9545 55.0852Z" fill="#263238"/>
<path d="M25.5022 57.8448C25.4927 57.8702 25.4812 57.8947 25.4678 57.9182L25.3554 58.1165C25.3054 58.2009 25.246 58.3071 25.1851 58.4289C25.1242 58.5507 25.0461 58.6944 24.9805 58.8584C24.9462 58.9396 24.9087 59.0239 24.8712 59.1114C24.8337 59.1988 24.8025 59.2956 24.765 59.3925C24.6901 59.5861 24.6307 59.7985 24.562 60.0172C24.2904 60.9962 24.1967 62.016 24.2856 63.0281C24.3121 63.2593 24.3309 63.481 24.3715 63.6841C24.3887 63.7856 24.4027 63.8855 24.423 63.9792C24.4433 64.0729 24.4652 64.1635 24.4855 64.2494C24.5198 64.4228 24.5714 64.5742 24.6089 64.7086C24.6463 64.8429 24.6838 64.9584 24.7182 65.0521L24.7916 65.2677C24.8021 65.292 24.809 65.3178 24.8119 65.3442C24.7968 65.3225 24.7848 65.2988 24.776 65.2739C24.7525 65.2161 24.7244 65.1474 24.6885 65.0631C24.6413 64.9519 24.6001 64.8382 24.5651 64.7226C24.523 64.5883 24.4683 64.4368 24.4293 64.2635C24.4074 64.1776 24.3855 64.087 24.3621 63.9933C24.3387 63.8996 24.3246 63.7981 24.3043 63.6966C24.2606 63.4904 24.2387 63.2687 24.2106 63.036C24.1129 62.0175 24.2072 60.9898 24.4886 60.0062C24.5589 59.7813 24.6214 59.5674 24.701 59.3737C24.74 59.2769 24.7713 59.1816 24.8119 59.0926L24.9274 58.8381C24.9962 58.6819 25.0836 58.5366 25.1445 58.4117C25.1996 58.3043 25.2606 58.2 25.3272 58.0994L25.4522 57.9073C25.4834 57.8651 25.499 57.8432 25.5022 57.8448Z" fill="#263238"/>
<path d="M44.8096 61.5994L44.7784 61.6213L44.6816 61.6822L44.3021 61.9102L44.0272 62.0664C43.9241 62.1241 43.8101 62.1772 43.6883 62.2381C43.4416 62.3568 43.1698 62.5083 42.8481 62.6301L42.3484 62.8347C42.175 62.9034 41.986 62.9581 41.7955 63.0237C41.416 63.1627 40.9943 63.2626 40.5555 63.3766C38.6287 63.8279 36.63 63.8811 34.6819 63.5328C34.2352 63.4422 33.8104 63.3641 33.4231 63.2455C33.2295 63.1892 33.039 63.1455 32.8609 63.0893L32.3518 62.9034C32.0254 62.7988 31.7443 62.6629 31.4929 62.5567C31.3679 62.5021 31.2508 62.4537 31.1462 62.4006L30.8619 62.2522L30.4715 62.0445L30.3715 61.9883L30.3387 61.968C30.3387 61.968 30.3528 61.968 30.3762 61.982L30.4793 62.0304L30.876 62.2241L31.1618 62.3646C31.268 62.4146 31.3867 62.4599 31.5116 62.513C31.763 62.613 32.0441 62.7457 32.3721 62.8457L32.875 63.0284C33.053 63.0877 33.2435 63.1299 33.4372 63.1845C33.8229 63.3001 34.2462 63.3735 34.6866 63.4625C36.6256 63.7983 38.6121 63.7452 40.5305 63.3064C40.9678 63.1939 41.3879 63.0987 41.7674 62.9628C41.9579 62.8988 42.1453 62.8472 42.3187 62.7785L42.8184 62.5802C43.1402 62.4615 43.4135 62.3147 43.6602 62.2007C43.782 62.1413 43.8976 62.0898 44.0007 62.0445L44.2786 61.8883L44.6644 61.6728L44.7659 61.6197C44.7971 61.6025 44.8096 61.5978 44.8096 61.5994Z" fill="#263238"/>
<path d="M46.4384 28.5454C46.4289 28.5567 46.4179 28.5667 46.4056 28.5751L46.3026 28.6594C46.2073 28.7359 46.0746 28.8437 45.9043 28.9718C45.5576 29.2466 45.0548 29.6449 44.4191 30.1196C43.6795 30.6859 42.9037 31.2034 42.0969 31.6688C41.617 31.9374 41.1168 32.1677 40.6007 32.3576C40.0441 32.5601 39.4635 32.6892 38.8735 32.7417C37.7264 32.8061 36.5825 32.5681 35.5564 32.0515C35.1126 31.8261 34.6843 31.5715 34.2742 31.2894C33.8932 31.0207 33.5449 30.7599 33.2372 30.5085C32.6125 30.0119 32.1347 29.5918 31.7973 29.3044L31.4116 28.9702L31.3132 28.8827L31.2804 28.8499C31.2804 28.8499 31.2945 28.8499 31.3179 28.8749L31.4225 28.9577L31.8176 29.2794C32.1612 29.5605 32.6516 29.9728 33.2731 30.4632C33.5855 30.7084 33.9306 30.9661 34.3133 31.2316C34.7219 31.5088 35.1481 31.7592 35.5892 31.9812C36.6051 32.4876 37.7354 32.7206 38.8688 32.6574C39.4517 32.6057 40.0255 32.4787 40.5757 32.2795C41.0883 32.0921 41.5854 31.865 42.0625 31.6001C42.8682 31.1431 43.6448 30.6367 44.3879 30.0837C45.0251 29.6152 45.5326 29.2248 45.8871 28.9577L46.2948 28.6454L46.4025 28.5673C46.4133 28.5582 46.4254 28.5509 46.4384 28.5454Z" fill="#263238"/>
<g opacity="0.24">
<path opacity="0.24" d="M32.3533 62.9112C33.0935 62.3396 34.1336 62.4771 35.0488 62.6707C35.964 62.8644 36.8854 63.1752 37.8115 63.0455C38.5096 62.9471 39.1499 62.6051 39.8417 62.4552C40.5336 62.3053 41.3659 62.4162 41.7486 63.008C38.6905 63.9934 35.3951 63.9595 32.358 62.9112" fill="black"/>
</g>
<path d="M53.3769 64.4063C53.952 63.8635 53.9783 62.9572 53.4355 62.382C52.8927 61.8069 51.9865 61.7806 51.4113 62.3234C50.8361 62.8662 50.8099 63.7724 51.3526 64.3476C51.8954 64.9228 52.8017 64.949 53.3769 64.4063Z" fill="#084523"/>
<path d="M46.8912 63.5293L57.8994 63.2477L57.1185 62.3946C56.6368 61.8677 56.3612 61.1848 56.3421 60.4711L56.2651 57.4848C56.2523 56.9568 56.1353 56.4365 55.921 55.9538C55.7066 55.4711 55.3991 55.0355 55.016 54.6719C54.6328 54.3084 54.1817 54.024 53.6885 53.8352C53.1952 53.6464 52.6695 53.5569 52.1416 53.5717C51.0791 53.6004 50.0714 54.0496 49.3398 54.8207C48.6082 55.5917 48.2124 56.6215 48.2394 57.6841L48.3127 60.5526C48.3293 61.2176 48.1227 61.869 47.7258 62.4029L46.8912 63.5293Z" fill="#084523"/>
<path d="M51.4692 52.7612L51.5041 54.1182C51.5107 54.3773 51.7262 54.582 51.9853 54.5754L52.1264 54.5717C52.3856 54.5651 52.5903 54.3496 52.5836 54.0905L52.5488 52.7335C52.5421 52.4744 52.3267 52.2697 52.0675 52.2763L51.9264 52.2799C51.6673 52.2866 51.4626 52.5021 51.4692 52.7612Z" fill="#084523"/>
<path d="M57.8999 63.2662C57.9001 63.2883 55.4523 63.3696 52.4333 63.4459C49.4143 63.5222 46.9655 63.5664 46.9648 63.5429C46.964 63.5193 49.4095 63.4321 52.4314 63.3632C55.4533 63.2942 57.9015 63.2485 57.8999 63.2662Z" fill="#263238"/>
<g opacity="0.3">
<path opacity="0.3" d="M50.9626 63.4424C51.3689 63.7379 51.8578 63.8983 52.3602 63.9009C52.8952 63.8997 53.4132 63.712 53.8247 63.37L50.9626 63.4424Z" fill="black"/>
</g>
<g opacity="0.2">
<path opacity="0.2" d="M55.8379 56.8978C55.8379 56.7695 55.8073 56.6431 55.7488 56.529C55.718 56.4728 55.6689 56.4288 55.6097 56.4044C55.5505 56.38 55.4847 56.3766 55.4233 56.3947C55.3558 56.4105 55.2958 56.4491 55.2535 56.504C55.2111 56.5589 55.189 56.6266 55.1908 56.6959C55.2054 57.1657 55.2255 58.2162 55.2117 58.8301C55.2046 59.3442 55.1449 59.8892 54.8268 60.2889C54.5635 60.5883 54.204 60.7866 53.8103 60.8495C53.4194 60.9095 53.0238 60.9335 52.6285 60.9213C52.128 60.914 51.6284 60.9682 51.1411 61.0828C51.0097 61.1081 50.8873 61.168 50.7869 61.2565C50.7388 61.302 50.7076 61.3625 50.6984 61.428C50.6892 61.4936 50.7026 61.5603 50.7364 61.6172C50.8104 61.7142 50.9513 61.7303 51.0703 61.738C52.3284 61.8167 53.597 61.8743 54.8438 61.6951C55.1069 61.6777 55.3581 61.5788 55.5624 61.4121C55.7758 61.2053 55.8275 60.8866 55.8579 60.5917C55.9618 59.3623 55.9551 58.126 55.8379 56.8978Z" fill="black"/>
</g>
<g opacity="0.2">
<path opacity="0.2" d="M51.7925 54.5936C51.688 54.3587 51.4362 54.1562 50.9787 54.2887C50.2754 54.4904 49.6708 54.9439 49.2803 55.5628C48.8455 56.203 48.6486 56.9752 48.7238 57.7454C48.75 58.0111 48.8263 58.2998 49.0454 58.4538C49.3749 58.6888 49.864 58.4723 50.0825 58.1356C50.301 57.799 50.3262 57.3698 50.3754 56.967C50.4247 56.5641 50.5226 56.1335 50.8294 55.8695C51.0761 55.6564 51.429 55.5788 51.6385 55.3275C51.7262 55.2294 51.7865 55.1099 51.8136 54.9811C51.8406 54.8524 51.8333 54.7187 51.7925 54.5936Z" fill="white"/>
</g>
<path d="M54.4995 54.2311C54.4911 54.2446 54.2769 54.0989 53.9017 53.9382C53.6813 53.8464 53.4538 53.7724 53.2215 53.717C52.9346 53.654 52.6425 53.6178 52.349 53.6091C52.0553 53.6048 51.7618 53.6274 51.4723 53.6766C51.2364 53.7197 51.0044 53.782 50.7787 53.8629C50.3931 54.0046 50.1753 54.1398 50.1666 54.1262C50.2121 54.0865 50.2622 54.0525 50.3158 54.0248C50.3758 53.987 50.4383 53.9533 50.5027 53.9239C50.5836 53.8806 50.6671 53.8426 50.7528 53.8101C50.979 53.7184 51.2136 53.6489 51.4532 53.6023C52.0428 53.4877 52.6501 53.5019 53.2337 53.6441C53.4709 53.7021 53.7021 53.7822 53.9244 53.8833C54.0205 53.9238 54.1009 53.9722 54.1743 54.0115C54.2372 54.0436 54.2977 54.0801 54.3554 54.1208C54.4082 54.1509 54.4567 54.188 54.4995 54.2311Z" fill="#263238"/>
<path d="M48.4218 59.5144C48.4064 59.4431 48.3978 59.3706 48.3961 59.2978C48.3842 59.1593 48.3708 58.9566 48.361 58.7066C48.3206 58.0512 48.3627 57.3934 48.4861 56.7484C48.6133 56.1 48.9023 55.4943 49.3264 54.9875C49.4571 54.837 49.6045 54.7017 49.7658 54.5843C49.8232 54.5398 49.8853 54.5016 49.951 54.4705C49.7433 54.6416 49.5508 54.8303 49.3756 55.0346C48.9725 55.542 48.6961 56.1381 48.5693 56.7736C48.4492 57.4109 48.3988 58.0593 48.4193 58.7075C48.4245 58.9457 48.4217 59.1463 48.4294 59.3C48.4347 59.3715 48.4321 59.4434 48.4218 59.5144Z" fill="white"/>
<path d="M48.0141 62.2431C47.9933 62.2292 48.1945 61.9266 48.3307 61.5065C48.4669 61.0865 48.4897 60.7247 48.5144 60.7269C48.5454 61.0003 48.5094 61.2771 48.4095 61.5335C48.3363 61.7982 48.2007 62.0415 48.0141 62.2431Z" fill="white"/>
<path d="M52.5871 64.5069C52.5912 64.5172 52.5053 64.5544 52.3562 64.5654C52.16 64.5785 51.9637 64.5388 51.788 64.4504C51.6123 64.3619 51.4635 64.228 51.3571 64.0625C51.3081 63.9976 51.2778 63.9206 51.2693 63.8397C51.3202 63.8993 51.3667 63.9624 51.4085 64.0286C51.5201 64.175 51.6635 64.294 51.8278 64.3769C51.9921 64.4598 52.1731 64.5043 52.3571 64.5071C52.4337 64.5016 52.5105 64.5015 52.5871 64.5069Z" fill="white"/>
<path d="M51.8386 52.4211C51.8556 52.4383 51.7253 52.5663 51.6641 52.783C51.6412 52.9151 51.6301 53.0489 51.6308 53.183C51.591 53.1211 51.5661 53.0509 51.558 52.9778C51.5499 52.9047 51.5588 52.8307 51.5842 52.7616C51.5962 52.6886 51.6255 52.6196 51.6698 52.5603C51.7141 52.5011 51.772 52.4533 51.8386 52.4211Z" fill="white"/>
</svg>
