<svg width="32" height="20" viewBox="0 0 32 20" fill="none" xmlns="http://www.w3.org/2000/svg">
<path d="M16.02 3.33329C22.3547 3.33329 26.7707 7.34929 28.692 9.51463C26.824 11.964 22.408 16.6666 16.02 16.6666C10.1267 16.6666 5.44667 11.952 3.38267 9.45729C5.37333 7.26129 9.80533 3.33329 16.02 3.33329ZM16.02 0.666626C5.928 0.666626 0 9.40129 0 9.40129C0 9.40129 6.44667 19.3333 16.02 19.3333C26.3307 19.3333 32 9.40129 32 9.40129C32 9.40129 26.2787 0.666626 16.02 0.666626ZM16 4.66663C13.0533 4.66663 10.6667 7.05463 10.6667 9.99996C10.6667 12.9453 13.0533 15.3333 16 15.3333C18.9453 15.3333 21.3333 12.9453 21.3333 9.99996C21.3333 7.05463 18.9453 4.66663 16 4.66663ZM15.9947 9.99863C15.2427 10.7506 14.0227 10.7506 13.2693 9.99863C12.516 9.24663 12.516 8.02529 13.2693 7.27329C14.0213 6.52129 15.2413 6.52129 15.9947 7.27329C16.748 8.02529 16.748 9.24529 15.9947 9.99863Z" fill="#084523"/>
</svg>
