<svg width="36" height="36" viewBox="0 0 36 36" fill="none" xmlns="http://www.w3.org/2000/svg">
<g clip-path="url(#clip0_3_250)">
<path d="M17.609 35.3194C27.3341 35.3194 35.2179 27.4356 35.2179 17.7104C35.2179 7.98527 27.3341 0.101471 17.609 0.101471C7.8838 0.101471 0 7.98527 0 17.7104C0 27.4356 7.8838 35.3194 17.609 35.3194Z" fill="#3C5A9A"/>
<path d="M23.3346 5.50653H19.4338C17.1189 5.50653 14.5441 6.48014 14.5441 9.83564C14.5554 11.0048 14.5441 12.1246 14.5441 13.3848H11.8661V17.6462H14.627V29.9143H19.7002V17.5653H23.0487L23.3517 13.3728H19.6128C19.6128 13.3728 19.6212 11.5078 19.6128 10.9662C19.6128 9.64018 20.9926 9.71612 21.0756 9.71612C21.7321 9.71612 23.0088 9.71803 23.3365 9.71612V5.50653H23.3346Z" fill="white"/>
</g>
<defs>
<clipPath id="clip0_3_250">
<rect width="35.2179" height="35.2179" fill="white" transform="translate(0 0.10144)"/>
</clipPath>
</defs>
</svg>
