<svg width="22" height="18" viewBox="0 0 22 18" fill="none" xmlns="http://www.w3.org/2000/svg">
<path opacity="0.4" d="M9.04666 12.958H2.20813C1.34262 12.958 0.640045 13.6217 0.640045 14.4393C0.640045 15.2559 1.34262 15.9207 2.20813 15.9207H9.04666C9.91217 15.9207 10.6147 15.2559 10.6147 14.4393C10.6147 13.6217 9.91217 12.958 9.04666 12.958Z" fill="#084523"/>
<path opacity="0.4" d="M21.4401 3.37855C21.4401 2.56202 20.7375 1.89832 19.8731 1.89832H13.0346C12.1691 1.89832 11.4665 2.56202 11.4665 3.37855C11.4665 4.19617 12.1691 4.85988 13.0346 4.85988H19.8731C20.7375 4.85988 21.4401 4.19617 21.4401 3.37855Z" fill="#084523"/>
<path d="M7.79289 3.37856C7.79289 5.24523 6.19246 6.75821 4.21647 6.75821C2.24164 6.75821 0.640045 5.24523 0.640045 3.37856C0.640045 1.51298 2.24164 0 4.21647 0C6.19246 0 7.79289 1.51298 7.79289 3.37856Z" fill="#084523"/>
<path d="M21.44 14.3992C21.44 16.2648 19.8396 17.7777 17.8636 17.7777C15.8888 17.7777 14.2872 16.2648 14.2872 14.3992C14.2872 12.5325 15.8888 11.0195 17.8636 11.0195C19.8396 11.0195 21.44 12.5325 21.44 14.3992Z" fill="#084523"/>
</svg>
