<svg width="68" height="45" viewBox="0 0 68 45" fill="none" xmlns="http://www.w3.org/2000/svg">
<path d="M28.0342 27.5864L30.249 31.6758L37.2046 27.9086L34.9899 23.8193L28.0342 27.5864Z" fill="#FECF3E"/>
<path opacity="0.1" d="M28.0342 27.5864L30.249 31.6758L37.2046 27.9086L34.9899 23.8193L28.0342 27.5864Z" fill="white"/>
<path opacity="0.3" d="M36.6981 26.9791L29.7388 30.7483L30.2447 31.6825L37.2041 27.9133L36.6981 26.9791Z" fill="black"/>
<path d="M52.1077 32.5835C59.8535 30.6408 64.5579 22.7866 62.6151 15.0408C60.6724 7.29496 52.8182 2.59064 45.0724 4.53338C37.3266 6.47612 32.6223 14.3303 34.565 22.0761C36.5078 29.8219 44.3619 34.5262 52.1077 32.5835Z" fill="#006940"/>
<path opacity="0.8" d="M52.1077 32.5835C59.8535 30.6408 64.5579 22.7866 62.6151 15.0408C60.6724 7.29496 52.8182 2.59064 45.0724 4.53338C37.3266 6.47612 32.6223 14.3303 34.565 22.0761C36.5078 29.8219 44.3619 34.5262 52.1077 32.5835Z" fill="white"/>
<path opacity="0.2" d="M62.5203 13.8231L63.8855 20.5335L39.356 25.5241L36.3678 10.8365C37.687 8.74391 39.5246 7.02773 41.7023 5.85431C42.1695 5.60296 42.6494 5.37598 43.1401 5.17428L48.3537 4.11356C50.9943 4.07377 53.5954 4.75795 55.8747 6.09183C58.154 7.42572 60.0245 9.35838 61.2832 11.6801C61.6163 12.2968 61.9051 12.9364 62.1472 13.5942L62.5203 13.8231Z" fill="black"/>
<path opacity="0.4" d="M62.5286 13.8215L63.8938 20.5319L39.3559 25.5242L38.8353 22.9655L45.3637 14.906L50.6122 18.0615L56.7891 10.2434L62.1638 13.5909L62.1647 13.5951L62.5286 13.8215Z" fill="white"/>
<path opacity="0.4" d="M44.443 10.5736C44.5338 11.0154 44.4914 11.4741 44.3212 11.8918C44.151 12.3094 43.8607 12.6672 43.4871 12.9197C43.1134 13.1722 42.6732 13.3082 42.2223 13.3104C41.7713 13.3126 41.3298 13.1809 40.9538 12.9319C40.5777 12.683 40.284 12.3281 40.1098 11.9121C39.9355 11.4962 39.8887 11.0378 39.9752 10.5952C40.0616 10.1526 40.2775 9.74562 40.5955 9.42579C40.9134 9.10596 41.3191 8.88767 41.7612 8.79859C42.0539 8.73905 42.3554 8.73773 42.6485 8.79472C42.9417 8.8517 43.2207 8.96586 43.4697 9.13069C43.7188 9.29552 43.9329 9.50779 44.0999 9.75537C44.2669 10.0029 44.3835 10.281 44.443 10.5736Z" fill="white"/>
<path opacity="0.2" d="M61.2636 25.5166C61.0318 25.9453 60.7762 26.3607 60.4979 26.7608L40.4295 30.8438L40.2168 29.7986L61.2636 25.5166Z" fill="black"/>
<path opacity="0.2" d="M58.6352 28.9687C58.0874 29.4985 57.4971 29.9827 56.8703 30.4163L45.5818 32.713C44.8381 32.5579 44.1084 32.3423 43.3999 32.0684L58.6352 28.9687Z" fill="black"/>
<path d="M39.1396 29.4475L39.1121 29.4836C38.9166 29.3144 38.7219 29.1276 38.5398 28.96C41.1405 25.714 54.4996 23.5577 57.066 24.8512C57.1113 24.874 57.1516 24.9055 57.1846 24.9439C57.2177 24.9823 57.2429 25.0268 57.2587 25.0749C57.2746 25.123 57.2808 25.1738 57.277 25.2243C57.2733 25.2748 57.2596 25.3241 57.2368 25.3694C57.2139 25.4146 57.1824 25.4549 57.144 25.488C57.1057 25.521 57.0611 25.5462 57.013 25.5621C56.9649 25.5779 56.9141 25.5841 56.8636 25.5804C56.8131 25.5766 56.7638 25.5629 56.7185 25.5401C54.4858 24.4313 41.4645 26.5363 39.1396 29.4475Z" fill="#006940"/>
<path d="M58.8568 24.6437C58.9298 26.4793 54.3947 29.0347 50.1578 30.6586C48.5078 31.2916 46.8107 31.7941 45.082 32.1615C44.7685 32.2253 44.4633 32.2874 44.158 32.3278C43.9067 32.2483 43.6587 32.1638 43.4124 32.0658C43.1661 31.9679 42.8862 31.8551 42.6264 31.7338C45.1166 31.4762 47.5582 30.8696 49.8793 29.9316C54.835 28.0526 58.1256 25.6937 58.0837 24.6747C58.0727 24.3634 57.6235 24.1675 57.2525 24.0557C57.1542 24.0258 57.0716 23.9586 57.0224 23.8685C56.9731 23.7784 56.9611 23.6726 56.989 23.5738C57.0188 23.4755 57.0863 23.393 57.1768 23.3444C57.2673 23.2958 57.3733 23.285 57.4717 23.3145C58.5916 23.6396 58.8445 24.2195 58.8568 24.6437Z" fill="#006940"/>
<path d="M59.4938 9.07029L55.5682 9.95604C55.4688 9.97519 55.3659 9.95523 55.2809 9.90032C55.1959 9.84541 55.1354 9.75979 55.112 9.66134C55.1013 9.61149 55.1005 9.56002 55.1097 9.50987C55.1189 9.45971 55.1378 9.41184 55.1655 9.36902C55.1932 9.32619 55.229 9.28923 55.271 9.26026C55.3129 9.23128 55.3602 9.21085 55.4101 9.20014L58.8892 8.40959C59.094 8.62479 59.2998 8.84417 59.4938 9.07029Z" fill="#006940"/>
<path d="M60.5105 10.3657L58.3615 10.8029C58.2605 10.8234 58.1556 10.803 58.0698 10.7462C57.9839 10.6894 57.9241 10.6008 57.9036 10.4999C57.883 10.3989 57.9034 10.294 57.9603 10.2081C58.0171 10.1223 58.1057 10.0625 58.2066 10.042L60.0044 9.67621C60.1675 9.89992 60.3365 10.1311 60.5105 10.3657Z" fill="#006940"/>
<path d="M41.6923 5.97823C38.9918 7.44036 36.7857 9.67043 35.3527 12.3864C33.9197 15.1024 33.3243 18.1824 33.6418 21.2368C33.9593 24.2912 35.1755 27.1828 37.1364 29.546C39.0974 31.9092 41.7151 33.6378 44.6585 34.5133C47.6019 35.3887 50.7388 35.3717 53.6725 34.4643C56.6062 33.5569 59.205 31.7999 61.1401 29.4155C63.0753 27.0312 64.2599 24.1265 64.5442 21.0688C64.8285 18.0112 64.1997 14.9379 62.7372 12.2376C60.7764 8.61698 57.4577 5.92351 53.511 4.74967C49.5644 3.57583 45.3131 4.01775 41.6923 5.97823ZM42.5704 7.59778C44.951 6.30736 47.6609 5.75208 50.3572 6.00222C53.0535 6.25235 55.6151 7.29665 57.7177 9.00298C59.8203 10.7093 61.3696 13.001 62.1694 15.588C62.9693 18.1751 62.9838 20.9413 62.211 23.5366C61.4383 26.1319 59.9132 28.4397 57.8285 30.1679C55.7439 31.8962 53.1934 32.9672 50.4999 33.2456C47.8064 33.524 45.0908 32.9971 42.6968 31.7317C40.3027 30.4663 38.3379 28.5192 37.0507 26.1367C35.3268 22.9458 34.9399 19.2012 35.9748 15.7252C37.0097 12.2492 39.3819 9.3261 42.5704 7.59778Z" fill="#FECF3E"/>
<path opacity="0.1" d="M41.6923 5.97823C38.9918 7.44036 36.7857 9.67043 35.3527 12.3864C33.9197 15.1024 33.3243 18.1824 33.6418 21.2368C33.9593 24.2912 35.1755 27.1828 37.1364 29.546C39.0974 31.9092 41.7151 33.6378 44.6585 34.5133C47.6019 35.3887 50.7388 35.3717 53.6725 34.4643C56.6062 33.5569 59.205 31.7999 61.1401 29.4155C63.0753 27.0312 64.2599 24.1265 64.5442 21.0688C64.8285 18.0112 64.1997 14.9379 62.7372 12.2376C60.7764 8.61698 57.4577 5.92351 53.511 4.74967C49.5644 3.57583 45.3131 4.01775 41.6923 5.97823ZM42.5704 7.59778C44.951 6.30736 47.6609 5.75208 50.3572 6.00222C53.0535 6.25235 55.6151 7.29665 57.7177 9.00298C59.8203 10.7093 61.3696 13.001 62.1694 15.588C62.9693 18.1751 62.9838 20.9413 62.211 23.5366C61.4383 26.1319 59.9132 28.4397 57.8285 30.1679C55.7439 31.8962 53.1934 32.9672 50.4999 33.2456C47.8064 33.524 45.0908 32.9971 42.6968 31.7317C40.3027 30.4663 38.3379 28.5192 37.0507 26.1367C35.3268 22.9458 34.9399 19.2012 35.9748 15.7252C37.0097 12.2492 39.3819 9.3261 42.5704 7.59778Z" fill="white"/>
<path d="M41.0222 4.73883C38.3218 6.20123 36.1157 8.4316 34.683 11.1479C33.2503 13.8641 32.6552 16.9443 32.9731 19.9987C33.291 23.0532 34.5076 25.9448 36.4689 28.3078C38.4303 30.6708 41.0484 32.3991 43.9921 33.2741C46.9358 34.149 50.0728 34.1314 53.0065 33.2234C55.9401 32.3154 58.5386 30.5578 60.4733 28.1729C62.408 25.788 63.592 22.883 63.8756 19.8251C64.1591 16.7673 63.5295 13.694 62.0664 10.994C60.1048 7.37434 56.7859 4.68195 52.8395 3.50893C48.8932 2.3359 44.6425 2.7783 41.0222 4.73883ZM41.8953 6.35505C44.2757 5.06386 46.9855 4.50778 49.682 4.75719C52.3785 5.0066 54.9405 6.05029 57.0436 7.75618C59.1467 9.46206 60.6966 11.7535 61.497 14.3405C62.2975 16.9275 62.3126 19.6938 61.5403 22.2894C60.7681 24.8849 59.2433 27.1931 57.1588 28.9218C55.0744 30.6505 52.524 31.722 49.8304 32.0007C47.1367 32.2795 44.421 31.753 42.0267 30.4878C39.6324 29.2226 37.6672 27.2756 36.3798 24.8932C34.6559 21.7029 34.2684 17.9588 35.3025 14.4831C36.3366 11.0074 38.7078 8.08408 41.8953 6.35505Z" fill="#FECF3E"/>
<path opacity="0.3" d="M41.0222 4.73883C38.3218 6.20123 36.1157 8.4316 34.683 11.1479C33.2503 13.8641 32.6552 16.9443 32.9731 19.9987C33.291 23.0532 34.5076 25.9448 36.4689 28.3078C38.4303 30.6708 41.0484 32.3991 43.9921 33.2741C46.9358 34.149 50.0728 34.1314 53.0065 33.2234C55.9401 32.3154 58.5386 30.5578 60.4733 28.1729C62.408 25.788 63.592 22.883 63.8756 19.8251C64.1591 16.7673 63.5295 13.694 62.0664 10.994C60.1048 7.37434 56.7859 4.68195 52.8395 3.50893C48.8932 2.3359 44.6425 2.7783 41.0222 4.73883ZM41.8953 6.35505C44.2757 5.06386 46.9855 4.50778 49.682 4.75719C52.3785 5.0066 54.9405 6.05029 57.0436 7.75618C59.1467 9.46206 60.6966 11.7535 61.497 14.3405C62.2975 16.9275 62.3126 19.6938 61.5403 22.2894C60.7681 24.8849 59.2433 27.1931 57.1588 28.9218C55.0744 30.6505 52.524 31.722 49.8304 32.0007C47.1367 32.2795 44.421 31.753 42.0267 30.4878C39.6324 29.2226 37.6672 27.2756 36.3798 24.8932C34.6559 21.7029 34.2684 17.9588 35.3025 14.4831C36.3366 11.0074 38.7078 8.08408 41.8953 6.35505Z" fill="white"/>
<path d="M6.17891 42.0704C6.57038 42.7939 7.23319 43.3322 8.02154 43.567C8.80988 43.8018 9.65922 43.7138 10.3827 43.3225L30.8823 32.2202C31.0003 32.156 31.1045 32.0691 31.1887 31.9643C31.2729 31.8596 31.3354 31.7392 31.3728 31.6101C31.4101 31.481 31.4214 31.3458 31.4061 31.2123C31.3908 31.0788 31.3491 30.9497 31.2835 30.8324L29.2899 27.154C29.1625 26.9186 28.947 26.7433 28.6906 26.6665C28.4343 26.5897 28.1579 26.6177 27.9221 26.7443L7.42254 37.8466C7.06283 38.0415 6.74518 38.3056 6.48784 38.6237C6.2305 38.9418 6.03853 39.3076 5.92298 39.7C5.80742 40.0925 5.77054 40.504 5.81446 40.9108C5.85838 41.3175 5.98224 41.7116 6.17891 42.0704Z" fill="#FECF3E"/>
<path opacity="0.3" d="M6.17891 42.0704C6.57038 42.7939 7.23319 43.3322 8.02154 43.567C8.80988 43.8018 9.65922 43.7138 10.3827 43.3225L30.8823 32.2202C31.0003 32.156 31.1045 32.0691 31.1887 31.9643C31.2729 31.8596 31.3354 31.7392 31.3728 31.6101C31.4101 31.481 31.4214 31.3458 31.4061 31.2123C31.3908 31.0788 31.3491 30.9497 31.2835 30.8324L29.2899 27.154C29.1625 26.9186 28.947 26.7433 28.6906 26.6665C28.4343 26.5897 28.1579 26.6177 27.9221 26.7443L7.42254 37.8466C7.06283 38.0415 6.74518 38.3056 6.48784 38.6237C6.2305 38.9418 6.03853 39.3076 5.92298 39.7C5.80742 40.0925 5.77054 40.504 5.81446 40.9108C5.85838 41.3175 5.98224 41.7116 6.17891 42.0704Z" fill="white"/>
<path opacity="0.3" d="M5.96676 41.5824C6.01974 41.7523 6.09098 41.9159 6.17924 42.0704C6.37301 42.4285 6.63551 42.745 6.9517 43.0016C7.2679 43.2582 7.63159 43.4499 8.02196 43.5658C8.41234 43.6817 8.82173 43.7195 9.22672 43.6771C9.63172 43.6346 10.0244 43.5126 10.3822 43.3183L30.8818 32.216C31.0007 32.1527 31.1056 32.0662 31.1905 31.9615C31.2753 31.8569 31.3383 31.7363 31.3758 31.6069C31.4132 31.4775 31.4242 31.3419 31.4083 31.2082C31.3924 31.0744 31.3497 30.9452 31.283 30.8282L30.7803 29.8986C30.8465 30.016 30.8885 30.1455 30.9039 30.2794C30.9193 30.4133 30.9078 30.5489 30.87 30.6783C30.8322 30.8076 30.769 30.9282 30.684 31.0327C30.599 31.1373 30.4939 31.2239 30.3749 31.2872L9.87957 42.3886C9.23712 42.7376 8.49192 42.8482 7.77582 42.7006C7.05973 42.5531 6.41891 42.157 5.96676 41.5824Z" fill="black"/>
<path opacity="0.3" d="M7.93124 39.3844C7.78068 39.5034 7.66727 39.663 7.60437 39.8443C7.54146 40.0256 7.53167 40.2212 7.57617 40.4078C7.62067 40.5945 7.7176 40.7646 7.85553 40.8981C7.99346 41.0315 8.16666 41.1227 8.35472 41.161C8.54277 41.1993 8.73786 41.1831 8.91699 41.1142C9.09612 41.0453 9.25185 40.9267 9.36581 40.7723C9.47977 40.6179 9.54724 40.4341 9.56025 40.2426C9.57326 40.0512 9.53128 39.86 9.43925 39.6915C9.27856 39.4526 9.03033 39.2865 8.74817 39.229C8.46602 39.1715 8.17258 39.2274 7.93124 39.3844Z" fill="black"/>
<path opacity="0.4" d="M51.2829 9.37384C50.1304 10.5575 50.4556 12.7336 52.0027 14.2388C53.5498 15.744 55.733 16.0096 56.8854 14.8259C58.0379 13.6423 57.7127 11.4661 56.1656 9.96094C54.6185 8.45574 52.432 8.19523 51.2829 9.37384Z" fill="white"/>
</svg>
