<svg width="34" height="35" viewBox="0 0 34 35" fill="none" xmlns="http://www.w3.org/2000/svg">
<g clip-path="url(#clip0_3_260)">
<path d="M33.982 17.8274C33.982 16.3935 33.8664 15.3471 33.616 14.262H17.3386V20.734H26.8931C26.7005 22.3424 25.6603 24.7646 23.3487 26.3923L23.3163 26.6089L28.4629 30.6197L28.8195 30.6555C32.0942 27.6131 33.982 23.1369 33.982 17.8274Z" fill="#4285F4"/>
<path d="M17.3386 34.8798C22.0195 34.8798 25.9492 33.3295 28.8195 30.6555L23.3487 26.3923C21.8847 27.4193 19.9198 28.1363 17.3386 28.1363C12.754 28.1363 8.86287 25.0941 7.47578 20.8891L7.27247 20.9065L1.92094 25.0727L1.85095 25.2684C4.70188 30.9654 10.5579 34.8798 17.3386 34.8798Z" fill="#34A853"/>
<path d="M7.476 20.8891C7.11001 19.804 6.89819 18.6412 6.89819 17.4399C6.89819 16.2384 7.11001 15.0758 7.45675 13.9906L7.44705 13.7595L2.02846 9.5264L1.85118 9.61123C0.676173 11.9753 0.00195312 14.6301 0.00195312 17.4399C0.00195312 20.2496 0.676173 22.9043 1.85118 25.2684L7.476 20.8891Z" fill="#FBBC05"/>
<path d="M17.3386 6.74341C20.594 6.74341 22.79 8.15797 24.0422 9.34009L28.935 4.5344C25.93 1.72465 22.0195 3.05176e-05 17.3386 3.05176e-05C10.5579 3.05176e-05 4.70188 3.91429 1.85095 9.61127L7.45652 13.9907C8.86286 9.78574 12.754 6.74341 17.3386 6.74341Z" fill="#EB4335"/>
</g>
<defs>
<clipPath id="clip0_3_260">
<rect width="34" height="35" fill="white"/>
</clipPath>
</defs>
</svg>
