<?xml version="1.0" encoding="UTF-8"?>
<svg id="Capa_1" data-name="Capa 1" xmlns="http://www.w3.org/2000/svg" viewBox="0 0 512 511.68">
  <defs>
    <style>
      .cls-1 {
        fill: #fecf3e;
      }
    </style>
  </defs>
  <path class="cls-1" d="M362.67,383.68v128h85.33c35.35,0,64-28.65,64-64V253.1c0-11.08-4.3-21.73-12.01-29.7L318.7,27.41c-31.99-34.61-85.98-36.74-120.59-4.75-1.64,1.52-3.23,3.1-4.75,4.75L12.4,223.34C4.45,231.34,0,242.15,0,253.42v194.26C0,483.03,28.65,511.68,64,511.68h85.33v-128c.4-58.17,47.37-105.68,104.07-107.04,58.6-1.41,108.81,46.9,109.26,107.04Z"/>
</svg>