<svg width="21" height="17" viewBox="0 0 21 17" fill="none" xmlns="http://www.w3.org/2000/svg">
<path d="M20.4498 16.084L20.2225 15.8249L19.1407 16.8968L19.139 16.8951C19.0177 17.0153 18.8211 17.017 18.6998 16.8985L17.5975 15.8367L16.5174 16.8646C16.3995 16.9849 16.2047 16.9916 16.0799 16.8765L14.9349 15.8283L13.8959 16.8883C13.889 16.8951 13.8839 16.9019 13.8771 16.9087C13.754 17.0306 13.5558 17.0306 13.4327 16.9087L12.3424 15.8283L11.2179 16.89C11.0948 17.0052 10.9 17.0035 10.7804 16.8832L9.71055 15.813L9.48838 16.067C9.43198 16.1432 9.3397 16.1923 9.23545 16.1923C9.06113 16.1923 8.921 16.0518 8.921 15.8808V11.7286C8.99277 11.7404 9.06626 11.7472 9.13975 11.7472C9.27818 11.7489 9.4166 11.7319 9.55161 11.6947V15.0815C9.6627 15.0239 9.80112 15.0358 9.90195 15.1221C9.90879 15.1272 9.91392 15.1323 9.91904 15.1391L11.0094 16.2313L12.1322 15.1712C12.2569 15.0544 12.4501 15.0578 12.5697 15.1763L12.5714 15.1746L13.6532 16.2465L14.7008 15.178C14.8204 15.0578 15.0135 15.0527 15.1383 15.1661L16.2918 16.2211L17.3856 15.1814C17.5086 15.0645 17.7035 15.0662 17.8231 15.1848L18.9168 16.2398L20.0174 15.1492C20.1114 15.0544 20.2567 15.0341 20.3729 15.0883V6.63821H14.5726C14.5931 6.5383 14.6017 6.43669 14.6017 6.33509C14.6 6.2284 14.5863 6.12003 14.5624 6.01504H20.6874C20.8617 6.01504 21.0018 6.15389 21.0018 6.32662V15.8808H21.0001C21.0001 15.9671 20.9642 16.0535 20.8907 16.1161C20.7608 16.2279 20.5626 16.2144 20.4498 16.084ZM11.9852 13.3457C11.8451 13.3457 11.7306 13.2323 11.7306 13.0934C11.7306 12.9546 11.8451 12.8411 11.9852 12.8411H14.2667C14.4068 12.8411 14.5213 12.9546 14.5213 13.0934C14.5213 13.2323 14.4068 13.3457 14.2667 13.3457H11.9852ZM11.9852 10.2909C11.8451 10.2909 11.7306 10.1774 11.7306 10.0385C11.7306 9.89969 11.8451 9.78623 11.9852 9.78623H18.7511C18.8912 9.78623 19.0057 9.89969 19.0057 10.0385C19.0057 10.1774 18.8912 10.2909 18.7511 10.2909H11.9852ZM11.9852 11.8268C11.8451 11.8268 11.7306 11.7133 11.7306 11.5745C11.7306 11.4356 11.8451 11.3221 11.9852 11.3221H17.7701C17.9103 11.3221 18.0248 11.4356 18.0248 11.5745C18.0248 11.7133 17.9103 11.8268 17.7701 11.8268H11.9852ZM10.7154 2.89749C11.0555 3.23448 11.0624 3.77806 10.7308 4.10658L10.5514 4.28439L11.992 5.68652L8.3502 9.16475L6.94712 7.72537L1.48008 13.1425C1.14854 13.4711 0.599953 13.4643 0.259865 13.1273C-0.0802229 12.7903 -0.0870588 12.2467 0.244484 11.9182L5.73203 6.48072L4.63316 5.34953L8.07505 1.8713L9.30723 3.06853L9.49693 2.88056C9.82676 2.55543 10.3753 2.5622 10.7154 2.89749ZM7.92637 0.204995C8.19639 0.472551 8.20152 0.906061 7.93833 1.16684L3.92222 5.14632C3.65904 5.40711 3.22153 5.40203 2.95152 5.13447C2.6815 4.86691 2.67637 4.4334 2.93955 4.17262L6.95567 0.193141C7.21885 -0.0693354 7.65635 -0.0625618 7.92637 0.204995ZM13.6344 5.86094C13.9044 6.12849 13.9095 6.562 13.6463 6.82279L9.63023 10.8023C9.36704 11.063 8.92954 11.058 8.65952 10.7904C8.3895 10.5229 8.38438 10.0893 8.64756 9.82856L12.6637 5.84908C12.9286 5.5883 13.3644 5.59338 13.6344 5.86094Z" fill="url(#paint0_linear_202_2383)"/>
<defs>
<linearGradient id="paint0_linear_202_2383" x1="0.000244111" y1="-1.04361" x2="23.9491" y2="3.54037" gradientUnits="userSpaceOnUse">
<stop stop-color="#FECF3E"/>
<stop offset="1" stop-color="#FECF3E"/>
</linearGradient>
</defs>
</svg>
