<svg width="23" height="19" viewBox="0 0 23 19" fill="none" xmlns="http://www.w3.org/2000/svg">
<path d="M3.56939 10.5454H15.6817C16.259 10.5454 16.7271 10.0773 16.7271 9.4999C16.7271 8.92253 16.259 8.45444 15.6817 8.45444H3.56939L4.92109 7.10281C5.32938 6.6946 5.32938 6.03261 4.92109 5.62433C4.51295 5.21604 3.85097 5.21604 3.44261 5.62433L0.306458 8.76048C0.282203 8.78467 0.259342 8.80997 0.237597 8.83645C0.2323 8.84294 0.22777 8.8499 0.222612 8.85653C0.206652 8.87681 0.19097 8.89716 0.176612 8.91863C0.17243 8.9249 0.169015 8.93152 0.164903 8.93786C0.150545 8.96031 0.136467 8.98296 0.123782 9.00658C0.121342 9.01125 0.119321 9.0162 0.116882 9.02087C0.103709 9.04645 0.0910242 9.07238 0.0799424 9.09914C0.0785485 9.10242 0.0775727 9.1059 0.0762485 9.10925C0.0648879 9.13741 0.0543636 9.16591 0.0454424 9.19525C0.0442576 9.19895 0.0436303 9.20278 0.0425848 9.20654C0.0341515 9.23533 0.0264152 9.26439 0.0204909 9.29415C0.0187485 9.30301 0.0179818 9.31214 0.0163788 9.32106C0.0120576 9.34573 0.00773636 9.3704 0.00529697 9.39556C0.00174242 9.43006 0 9.46491 0 9.4999C0 9.53489 0.00174242 9.56974 0.00529697 9.6043C0.00773636 9.62981 0.012197 9.6547 0.0164485 9.67958C0.0179818 9.68822 0.0187485 9.69707 0.0204909 9.70564C0.0264848 9.73568 0.0341515 9.76503 0.0426545 9.79409C0.0437 9.7975 0.0443273 9.80113 0.0453727 9.80454C0.0543636 9.83403 0.0648879 9.86281 0.0763879 9.89125C0.0776424 9.89431 0.0785485 9.89759 0.0798727 9.90066C0.0910242 9.92763 0.103779 9.9537 0.117091 9.97941C0.119391 9.98394 0.121342 9.98868 0.123712 9.99321C0.136536 10.017 0.150685 10.0398 0.165252 10.0625C0.169155 10.0686 0.1725 10.0751 0.176542 10.0811C0.19097 10.1026 0.206791 10.1231 0.222682 10.1435C0.22777 10.15 0.2323 10.1569 0.237527 10.1633C0.259342 10.1898 0.282203 10.2151 0.306388 10.2393L3.44254 13.3755C3.64668 13.5797 3.91425 13.6817 4.18182 13.6817C4.44938 13.6817 4.71695 13.5797 4.92102 13.3755C5.32931 12.9672 5.32931 12.3053 4.92102 11.897L3.56939 10.5454Z" fill="url(#paint0_linear_202_2388)"/>
<path d="M14.4481 0.947998C11.5944 0.947998 8.9394 2.36368 7.34578 4.73484C7.02378 5.21401 7.15118 5.86359 7.63035 6.18566C8.10959 6.50766 8.75909 6.38039 9.08123 5.90108C10.2857 4.10882 12.292 3.03884 14.4481 3.03884C18.0107 3.03891 20.9091 5.93726 20.9091 9.49989C20.9091 13.0625 18.0107 15.9609 14.4481 15.9609C12.2983 15.9609 10.2953 14.8957 9.08994 13.1116C8.76662 12.6331 8.11691 12.5074 7.63837 12.8306C7.15997 13.1538 7.03409 13.8037 7.35735 14.2821C8.95208 16.6426 11.6028 18.0518 14.4481 18.0518C19.1636 18.0518 23 14.2154 23 9.49989C23 4.78433 19.1636 0.947998 14.4481 0.947998Z" fill="url(#paint1_linear_202_2388)"/>
<defs>
<linearGradient id="paint0_linear_202_2388" x1="-2.372e-08" y1="4.80456" x2="18.0411" y2="10.395" gradientUnits="userSpaceOnUse">
<stop stop-color="#FECF3E"/>
<stop offset="1" stop-color="#FECF3E"/>
</linearGradient>
<linearGradient id="paint1_linear_202_2388" x1="7.16797" y1="-0.102233" x2="25.5061" y2="2.52773" gradientUnits="userSpaceOnUse">
<stop stop-color="#FECF3E"/>
<stop offset="1" stop-color="#FECF3E"/>
</linearGradient>
</defs>
</svg>
