<svg width="32" height="20" viewBox="0 0 32 20" fill="none" xmlns="http://www.w3.org/2000/svg">
<path d="M20.3189 17.8384H11.6694V2.13501H20.319L20.3189 17.8384Z" fill="#FF5F00"/>
<path d="M12.2179 9.98699C12.2179 6.80157 13.6943 3.96398 15.9933 2.13531C14.2531 0.749066 12.1006 -0.00329717 9.8845 1.08622e-05C4.42531 1.08622e-05 0 4.47127 0 9.98699C0 15.5027 4.42531 19.974 9.8845 19.974C12.1007 19.9773 14.2532 19.2249 15.9934 17.8387C13.6946 16.0103 12.2179 13.1726 12.2179 9.98699Z" fill="#EB001B"/>
<path d="M31.9879 9.98699C31.9879 15.5027 27.5626 19.974 22.1034 19.974C19.887 19.9773 17.7343 19.2249 15.9937 17.8387C18.2933 16.01 19.7697 13.1726 19.7697 9.98699C19.7697 6.8014 18.2933 3.96398 15.9937 2.13531C17.7342 0.749107 19.8869 -0.00323919 22.1032 1.04834e-05C27.5624 1.04834e-05 31.9877 4.47127 31.9877 9.98699" fill="#F79E1B"/>
</svg>
