<svg width="19" height="15" viewBox="0 0 19 15" fill="none" xmlns="http://www.w3.org/2000/svg">
<path d="M17.1443 7.5C17.1443 8.33941 17.7017 9.0482 18.4661 9.27754C18.7819 9.37217 18.9998 9.66014 18.9998 9.98967V13.8086C18.9998 14.2187 18.6677 14.5508 18.2576 14.5508H14.3388C14.0765 14.5508 13.8275 14.4168 13.6991 14.1879C13.5722 13.9615 13.3295 13.8086 13.0515 13.8086L12.3093 7.5L13.0515 1.19141C13.3295 1.19141 13.5722 1.03852 13.6991 0.812148C13.8275 0.583184 14.0765 0.449219 14.3388 0.449219H18.2576C18.6677 0.449219 18.9998 0.781348 18.9998 1.19141V5.01033C18.9998 5.33986 18.7819 5.62783 18.4661 5.72246C17.7017 5.9518 17.1443 6.66059 17.1443 7.5Z" fill="#FFD962"/>
<path d="M15.2781 13.8086V1.19141C15.2781 0.781348 15.6102 0.449219 16.0203 0.449219H14.3388C14.0765 0.449219 13.8275 0.583184 13.6991 0.812148C13.5722 1.03852 13.3295 1.19141 13.0515 1.19141L12.3093 7.5L13.0515 13.8086C13.3295 13.8086 13.5722 13.9615 13.6991 14.1879C13.8275 14.4168 14.0765 14.5508 14.3388 14.5508H16.0203C15.6102 14.5508 15.2781 14.2187 15.2781 13.8086Z" fill="#FFE580"/>
<path d="M13.0517 13.8086C12.7734 13.8086 12.5311 13.9615 12.4042 14.1879C12.2758 14.4168 12.0264 14.5508 11.7644 14.5508H3.35172C1.30625 12.8838 0 10.3444 0 7.5C0 4.65557 1.30625 2.11617 3.35172 0.449219H11.7644C12.0264 0.449219 12.2758 0.583184 12.4042 0.812148C12.5311 1.03852 12.7734 1.19141 13.0517 1.19141V13.8086Z" fill="#FECF3E"/>
<path d="M3.35216 14.5508H7.91691C7.09713 14.5508 6.43254 13.8862 6.43254 13.0664V1.93359C6.43254 1.11381 7.09713 0.449219 7.91691 0.449219H3.35216C1.30666 2.11636 0 4.65542 0 7.5C0 10.3446 1.30666 12.8836 3.35216 14.5508Z" fill="#FFC839"/>
<path d="M3.87614 11.8624C3.7513 11.8624 3.6248 11.8309 3.50861 11.7645C3.15269 11.5612 3.02908 11.1077 3.23244 10.7519L7.36984 3.5115C7.5732 3.15562 8.02653 3.03204 8.38248 3.23533C8.7384 3.43869 8.86201 3.89209 8.65865 4.24797L4.52121 11.4883C4.38424 11.7281 4.13379 11.8624 3.87614 11.8624Z" fill="white"/>
<path d="M3.06548 7.54481C1.96293 7.54481 1.06592 6.5564 1.06592 5.34152C1.06592 4.12659 1.96293 3.13818 3.06548 3.13818C4.16808 3.13818 5.06509 4.12659 5.06509 5.34152C5.06509 6.5564 4.16808 7.54481 3.06548 7.54481ZM3.06548 4.62256C2.78623 4.62256 2.55029 4.95179 2.55029 5.34152C2.55029 5.7312 2.7862 6.06044 3.06548 6.06044C3.34477 6.06044 3.58071 5.7312 3.58071 5.34152C3.58071 4.95179 3.34473 4.62256 3.06548 4.62256Z" fill="white"/>
<path d="M8.82528 11.8622C7.72269 11.8622 6.82568 10.8738 6.82568 9.6589C6.82568 8.44397 7.72269 7.45557 8.82528 7.45557C9.92784 7.45557 10.8248 8.44397 10.8248 9.6589C10.8248 10.8738 9.92784 11.8622 8.82528 11.8622ZM8.82528 8.93994C8.54604 8.93994 8.31006 9.26917 8.31006 9.6589C8.31006 10.0486 8.546 10.3779 8.82528 10.3779C9.10457 10.3779 9.34047 10.0486 9.34047 9.6589C9.34047 9.26917 9.10453 8.93994 8.82528 8.93994Z" fill="white"/>
<path d="M8.73374 8.96575C8.35682 8.92048 8.06451 8.60015 8.06451 8.21102C8.06451 7.86609 8.29421 7.57519 8.6089 7.48193C7.60773 7.6012 6.82568 8.53777 6.82568 9.67217C6.82568 10.8065 7.60776 11.7431 8.6089 11.8624C8.29421 11.7691 8.06451 11.4782 8.06451 11.1333C8.06451 10.7442 8.35682 10.4239 8.73374 10.3785C8.49638 10.3162 8.31006 10.0183 8.31006 9.67217C8.31006 9.32594 8.49638 9.02806 8.73374 8.96575Z" fill="#D3DCFB"/>
<path d="M2.97397 4.63421C2.59705 4.58894 2.30474 4.26861 2.30474 3.87948C2.30474 3.53455 2.53445 3.24365 2.84913 3.15039C1.84796 3.26966 1.06592 4.20623 1.06592 5.34062C1.06592 6.47498 1.848 7.41155 2.84913 7.53082C2.53445 7.43756 2.30474 7.14666 2.30474 6.80173C2.30474 6.41264 2.59705 6.09231 2.97397 6.047C2.73662 5.98469 2.55029 5.68678 2.55029 5.34062C2.55029 4.99443 2.73662 4.69655 2.97397 4.63421Z" fill="#D3DCFB"/>
<path d="M5.94556 8.26074C5.5254 8.26074 5.18481 7.92015 5.18481 7.49999C5.18481 7.42232 5.19658 7.34744 5.21821 7.27686L3.23242 10.752C3.02909 11.1078 3.1527 11.5612 3.50858 11.7646C3.62477 11.831 3.75128 11.8625 3.87611 11.8625C4.13376 11.8625 4.38422 11.7282 4.52122 11.4884L6.50902 8.0098C6.3699 8.16355 6.16932 8.26074 5.94556 8.26074Z" fill="#D3DCFB"/>
<path d="M12.031 4.96851H10.5466C10.3929 4.96851 10.2683 4.84393 10.2683 4.69019C10.2683 4.53644 10.3929 4.41187 10.5466 4.41187H12.031C12.1847 4.41187 12.3093 4.53644 12.3093 4.69019C12.3093 4.84393 12.1847 4.96851 12.031 4.96851Z" fill="#FFC839"/>
<path d="M12.031 6.45288H10.5466C10.3929 6.45288 10.2683 6.3283 10.2683 6.17456C10.2683 6.02082 10.3929 5.89624 10.5466 5.89624H12.031C12.1847 5.89624 12.3093 6.02082 12.3093 6.17456C12.3093 6.3283 12.1847 6.45288 12.031 6.45288Z" fill="#FFC839"/>
<path d="M11.7527 3.41797C12.0601 3.41797 12.3093 3.16875 12.3093 2.86133C12.3093 2.5539 12.0601 2.30469 11.7527 2.30469C11.4453 2.30469 11.196 2.5539 11.196 2.86133C11.196 3.16875 11.4453 3.41797 11.7527 3.41797Z" fill="#FFC839"/>
<path d="M15.5564 11.4893H14.072C13.9183 11.4893 13.7937 11.3647 13.7937 11.2109C13.7937 11.0572 13.9183 10.9326 14.072 10.9326H15.5564C15.7101 10.9326 15.8347 11.0572 15.8347 11.2109C15.8347 11.3647 15.7101 11.4893 15.5564 11.4893Z" fill="white"/>
<path d="M15.5564 12.9736H14.072C13.9183 12.9736 13.7937 12.8491 13.7937 12.6953C13.7937 12.5416 13.9183 12.417 14.072 12.417H15.5564C15.7101 12.417 15.8347 12.5416 15.8347 12.6953C15.8347 12.8491 15.7101 12.9736 15.5564 12.9736Z" fill="white"/>
<path d="M14.3503 9.93872C14.6578 9.93872 14.907 9.6895 14.907 9.38208C14.907 9.07466 14.6578 8.82544 14.3503 8.82544C14.0429 8.82544 13.7937 9.07466 13.7937 9.38208C13.7937 9.6895 14.0429 9.93872 14.3503 9.93872Z" fill="white"/>
</svg>
