<svg width="61" height="57" viewBox="0 0 61 57" fill="none" xmlns="http://www.w3.org/2000/svg">
<circle cx="53.6126" cy="5.14712" r="1.93178" fill="#FECF3E"/>
<circle cx="4.35212" cy="1.28376" r="0.965892" fill="#FECF3E"/>
<circle cx="52.6467" cy="55.3736" r="0.965892" fill="#FECF3E"/>
<circle cx="4.83504" cy="51.0272" r="4.34651" fill="#FECF3E"/>
<path d="M60.4142 41.7225C41.9408 34.3069 23.4704 49.2449 4.99988 41.8321V13.0291C23.4704 20.4419 41.9408 5.50385 60.4142 12.9195V41.7225Z" fill="#006940"/>
<path d="M57.1927 19.7636C54.5565 19.0569 52.4223 16.7581 52.4223 14.0987C52.4223 13.9689 52.4223 13.842 52.4424 13.7122C39.3763 12.371 26.3101 18.9848 13.2468 17.7503C13.2468 17.8772 13.2669 18.007 13.2669 18.1397C13.2669 20.776 11.1298 22.7893 8.4965 22.1057C8.31846 22.059 8.14321 22.0021 7.97156 21.9355V34.3901C8.14367 34.4218 8.31865 34.4564 8.4965 34.5026C11.1298 35.1833 13.2669 37.4677 13.2669 40.127C13.2664 40.4409 13.2347 40.754 13.1722 41.0616C26.2871 42.3393 39.4021 35.6707 52.5141 37.0495C52.4532 36.7359 52.4225 36.4171 52.4223 36.0976C52.4223 33.4584 54.5565 31.4625 57.1927 32.1691C57.2874 32.1951 57.3792 32.2297 57.4796 32.2614V19.827C57.3648 19.8069 57.273 19.7895 57.1927 19.7636Z" fill="white"/>
<path d="M50.1732 44.9355C46.5668 48.8949 41.8039 51.6015 36.5702 52.6656C31.3365 53.7297 25.902 53.0965 21.049 50.8571L22.4001 48.714L14.8444 48.3968L18.3468 55.1346L19.7266 52.9511C25.0727 55.5009 31.0909 56.2606 36.898 55.1185C42.705 53.9764 47.9951 50.9928 51.9919 46.6056L50.1732 44.9355Z" fill="#455A64"/>
<path d="M43.6218 5.54412L42.133 7.56316L49.6514 8.40538L46.6165 1.45412L45.0876 3.54527C39.497 0.398314 32.9934 -0.700278 26.687 0.436983C20.3806 1.57424 14.6621 4.87687 10.5074 9.78122L12.3691 11.3791C16.1221 6.94443 21.2787 3.9437 26.9726 2.88112C32.6664 1.81854 38.5505 2.75887 43.6361 5.54412H43.6218Z" fill="#455A64"/>
<g clip-path="url(#clip0_224_3773)">
<path d="M30.9999 45C40.941 45 48.9999 36.9411 48.9999 27C48.9999 17.0589 40.941 9 30.9999 9C21.0588 9 12.9999 17.0589 12.9999 27C12.9999 36.9411 21.0588 45 30.9999 45Z" fill="#FECF3E"/>
<path d="M26.4006 35.1198L35.6562 44.3753C43.3218 42.3312 49 35.3469 49 26.9999C49 26.8296 49 26.6592 49 26.4889L41.7319 19.7886L26.4006 35.1198Z" fill="#FECF3E"/>
<path d="M31.4539 31.0314C32.2489 31.8263 32.2489 33.1891 31.4539 33.984L29.8073 35.6307C29.0123 36.4257 27.6495 36.4257 26.8546 35.6307L19.6432 28.3626C18.8483 27.5676 18.8483 26.2048 19.6432 25.4099L21.2899 23.7632C22.0849 22.9683 23.4476 22.9683 24.2426 23.7632L31.4539 31.0314Z" fill="white"/>
<path d="M37.7567 18.4824C38.5516 17.6875 39.9144 17.6875 40.7093 18.4824L42.356 20.1291C43.151 20.9241 43.151 22.2869 42.356 23.0818L29.8639 35.5171C29.069 36.3121 27.7062 36.3121 26.9112 35.5171L25.2645 33.8705C24.4696 33.0755 24.4696 31.7127 25.2645 30.9178L37.7567 18.4824Z" fill="white"/>
</g>
<defs>
<clipPath id="clip0_224_3773">
<rect width="36" height="36" fill="white" transform="translate(12.9999 9)"/>
</clipPath>
</defs>
</svg>
