<svg width="61" height="57" viewBox="0 0 61 57" fill="none" xmlns="http://www.w3.org/2000/svg">
<circle cx="53.6126" cy="5.14712" r="1.93178" fill="#084523"/>
<circle cx="4.35212" cy="1.28376" r="0.965892" fill="#084523"/>
<circle cx="52.6467" cy="55.3736" r="0.965892" fill="#084523"/>
<circle cx="4.83504" cy="51.0272" r="4.34651" fill="#084523"/>
<path d="M60.4142 41.7225C41.9408 34.3069 23.4704 49.2449 4.99988 41.8321V13.0291C23.4704 20.4419 41.9408 5.50385 60.4142 12.9195V41.7225Z" fill="#006940"/>
<path d="M57.1927 19.7636C54.5565 19.0569 52.4223 16.7581 52.4223 14.0987C52.4223 13.9689 52.4223 13.842 52.4424 13.7122C39.3763 12.371 26.3101 18.9848 13.2468 17.7503C13.2468 17.8772 13.2669 18.007 13.2669 18.1397C13.2669 20.776 11.1298 22.7893 8.4965 22.1057C8.31846 22.059 8.14321 22.0021 7.97156 21.9355V34.3901C8.14367 34.4218 8.31865 34.4564 8.4965 34.5026C11.1298 35.1833 13.2669 37.4677 13.2669 40.127C13.2664 40.4409 13.2347 40.754 13.1722 41.0616C26.2871 42.3393 39.4021 35.6707 52.5141 37.0495C52.4532 36.7359 52.4225 36.4171 52.4223 36.0976C52.4223 33.4584 54.5565 31.4625 57.1927 32.1691C57.2874 32.1951 57.3792 32.2297 57.4796 32.2614V19.827C57.3648 19.8069 57.273 19.7895 57.1927 19.7636Z" fill="white"/>
<path d="M50.1732 44.9355C46.5668 48.8949 41.8039 51.6015 36.5702 52.6656C31.3365 53.7297 25.902 53.0965 21.049 50.8571L22.4001 48.714L14.8444 48.3968L18.3468 55.1346L19.7266 52.9511C25.0727 55.5009 31.0909 56.2606 36.898 55.1185C42.705 53.9764 47.9951 50.9928 51.9919 46.6056L50.1732 44.9355Z" fill="#455A64"/>
<path d="M43.6218 5.54412L42.133 7.56316L49.6514 8.40538L46.6165 1.45412L45.0876 3.54527C39.497 0.398314 32.9934 -0.700278 26.687 0.436983C20.3806 1.57424 14.6621 4.87687 10.5074 9.78122L12.3691 11.3791C16.1221 6.94443 21.2787 3.9437 26.9726 2.88112C32.6664 1.81854 38.5505 2.75887 43.6361 5.54412H43.6218Z" fill="#455A64"/>
<path d="M28.8935 19.5966H29.0332H29.4452H31.031L36.8698 19.5923H36.876V19.598C36.9957 19.8831 37.0976 20.1753 37.1811 20.4729C37.2689 20.7846 37.3267 21.1039 37.3537 21.4265C37.3819 21.7637 37.3646 22.1032 37.3023 22.4359C37.2338 22.7807 37.1098 23.1121 36.9351 23.4171C36.8446 23.5727 36.7423 23.7211 36.629 23.861C36.5134 24.0028 36.3884 24.1366 36.2547 24.2615C36.1194 24.3887 35.9776 24.5088 35.8299 24.6215C35.6821 24.7359 35.5276 24.8437 35.377 24.9581C35.3016 25.0148 35.2339 25.0787 35.1605 25.1426C35.0871 25.2065 35.0141 25.2661 34.9388 25.3262C34.7886 25.4463 34.637 25.5646 34.4939 25.6976C34.1954 25.9564 33.966 26.2854 33.8264 26.655C33.7594 26.8446 33.7171 27.042 33.7006 27.2424C33.6963 27.2901 33.6896 27.3425 33.6877 27.3931C33.6858 27.4436 33.6839 27.4942 33.6877 27.5447C33.6888 27.6462 33.699 27.7473 33.7182 27.847C33.756 28.0489 33.8384 28.2398 33.9595 28.4058C34.084 28.5717 34.2251 28.7246 34.3805 28.8621C34.689 29.1439 35.0165 29.4132 35.3298 29.7041C35.643 29.9949 35.9496 30.2982 36.2452 30.6191C36.396 30.7779 36.5371 30.9457 36.6676 31.1216C36.799 31.2997 36.9131 31.4898 37.0086 31.6895C37.2015 32.0941 37.3201 32.5302 37.3585 32.9768C37.3974 33.4296 37.3707 33.8857 37.2794 34.3309C37.235 34.5558 37.1767 34.7778 37.1049 34.9955C37.0343 35.2151 36.9482 35.4294 36.8474 35.6368L36.8441 35.6435H28.7038L28.7004 35.6382C28.3194 35.0645 28.0857 34.4057 28.0201 33.7201C27.954 33.0616 28.0506 32.3969 28.3014 31.7843C28.5397 31.1988 28.9067 30.6745 29.3751 30.25C29.6024 30.0493 29.8479 29.8703 30.1084 29.7151C30.3621 29.5577 30.6181 29.4118 30.8598 29.2526C31.1018 29.1013 31.3241 28.9207 31.5216 28.7147C31.7103 28.5125 31.8502 28.2699 31.9307 28.0053C32.0013 27.7471 32.0124 27.4764 31.9631 27.2133C31.9161 26.9595 31.8314 26.7141 31.7119 26.4853C31.5975 26.2649 31.4604 26.0572 31.3028 25.8654C31.1506 25.6815 30.9852 25.5089 30.8079 25.3491C30.4641 25.0325 30.1118 24.7555 29.7952 24.4708C29.6364 24.3278 29.4862 24.1847 29.3475 24.0384C29.213 23.8951 29.089 23.7423 28.9765 23.5811C28.7731 23.2856 28.6163 22.9606 28.5116 22.6175C28.4199 22.3212 28.3667 22.0144 28.3533 21.7045C28.3467 21.6339 28.3495 21.5643 28.3495 21.4961C28.3495 21.4279 28.3495 21.3617 28.3557 21.2973C28.3619 21.2329 28.3653 21.17 28.37 21.1066C28.3748 21.0432 28.3877 20.9864 28.3958 20.9287C28.4485 20.5775 28.5559 20.2368 28.7143 19.9189C28.7357 19.8697 28.7602 19.8219 28.7877 19.7759L28.8463 19.6762C28.8773 19.6233 28.894 19.5966 28.894 19.5966L28.8463 19.6776L28.7896 19.7759C28.7628 19.8221 28.7386 19.8699 28.7171 19.9189C28.5602 20.2375 28.454 20.5787 28.4025 20.9302C28.3943 20.9874 28.3848 21.0465 28.3777 21.1071C28.3705 21.1676 28.3681 21.231 28.3634 21.2954C28.3586 21.3598 28.3586 21.426 28.3581 21.4937C28.3576 21.5614 28.3557 21.631 28.3624 21.7016C28.3762 22.0105 28.4299 22.3162 28.5221 22.6113C28.6267 22.9532 28.7833 23.2769 28.9865 23.5711C29.0987 23.7316 29.2226 23.8836 29.357 24.026C29.4953 24.1728 29.6454 24.3159 29.8042 24.4551C30.1208 24.7412 30.4717 25.0153 30.8179 25.3324C30.9966 25.4934 31.1633 25.6672 31.3166 25.8526C31.4751 26.0457 31.613 26.2549 31.7281 26.4767C31.8488 26.7069 31.9343 26.9539 31.9817 27.2095C32.0317 27.4754 32.0206 27.7491 31.9493 28.0101C31.8684 28.2777 31.7272 28.5232 31.5364 28.7276C31.3379 28.9347 31.1147 29.1166 30.8718 29.2693C30.6291 29.429 30.373 29.5749 30.1199 29.7322C29.8605 29.887 29.6159 30.0655 29.3894 30.2653C28.9239 30.6875 28.559 31.2089 28.3219 31.791C28.0726 32.4004 27.9769 33.0617 28.043 33.7168C28.1086 34.3984 28.3411 35.0535 28.72 35.6239L28.7105 35.6187H36.836L36.825 35.6254C36.9257 35.4185 37.0114 35.2047 37.0815 34.9855C37.1529 34.7687 37.2109 34.5477 37.2551 34.3237C37.346 33.8807 37.3725 33.4269 37.3337 32.9763C37.296 32.5321 37.1783 32.0984 36.9861 31.6961C36.8914 31.4979 36.7782 31.3091 36.6481 31.1321C36.5179 30.9571 36.3774 30.7899 36.2276 30.6315C35.9335 30.3114 35.6289 30.0069 35.3136 29.7179C35.0008 29.4276 34.6742 29.1586 34.3647 28.8754C34.2081 28.7368 34.0658 28.5828 33.9399 28.4158C33.8165 28.2478 33.732 28.0545 33.6925 27.8498C33.6734 27.7487 33.663 27.6462 33.6615 27.5433C33.6591 27.4923 33.6615 27.4412 33.6615 27.3902C33.6615 27.3392 33.6701 27.2887 33.6739 27.2381C33.6914 27.0365 33.7346 26.838 33.8026 26.6474C33.9434 26.2745 34.1749 25.9427 34.4763 25.6819C34.6193 25.5493 34.7724 25.4292 34.9226 25.3095C34.9979 25.2494 35.0718 25.1889 35.1438 25.1269C35.2158 25.0649 35.2869 24.9982 35.3612 24.9409C35.5129 24.8265 35.6669 24.7188 35.8142 24.6048C35.9614 24.4927 36.1029 24.3732 36.2381 24.2467C36.3708 24.1224 36.4952 23.9894 36.6104 23.8486C36.7228 23.7092 36.8246 23.5616 36.9151 23.4071C37.0888 23.1042 37.2122 22.775 37.2803 22.4325C37.3423 22.1026 37.3598 21.7658 37.3323 21.4313C37.3056 21.1087 37.2483 20.7894 37.1611 20.4777C37.0787 20.1792 36.9781 19.8861 36.8598 19.5999L36.8679 19.6052L31.0324 19.6009H29.4457H29.0328L28.8935 19.5966Z" fill="#263238"/>
<path d="M36.5455 21.8037C37.7422 22.0006 35.8556 24.1204 34.7871 24.9567C34.1673 25.4406 33.5045 25.9661 33.2108 26.6946C32.8771 27.5214 33.1245 28.4502 32.9634 29.2817C32.9582 29.3104 32.9423 29.336 32.919 29.3535C32.8957 29.3709 32.8666 29.3789 32.8376 29.3759C32.8087 29.3728 32.7819 29.3589 32.7628 29.3369C32.7437 29.3149 32.7336 29.2865 32.7345 29.2574C32.7421 28.7114 32.7278 28.166 32.6391 27.6286C32.5109 26.8658 32.2181 26.1129 31.6856 25.5546C31.2493 25.0983 30.6776 24.7955 30.2127 24.3693C29.5338 23.7471 28.8362 22.9446 28.7681 22.0263C28.7681 22.0263 30.0716 20.9774 30.7954 21.1085C31.6412 21.2635 32.4737 22.5684 33.7839 22.4192C34.6955 22.3148 35.1576 21.5758 36.5455 21.8037Z" fill="#FECF3E"/>
<path d="M36.6518 33.149C36.6218 32.8496 36.5417 32.5111 36.2761 32.37C36.1154 32.2841 35.9195 32.2937 35.7431 32.3399C35.5666 32.3862 35.4012 32.4667 35.2267 32.5187C34.8798 32.6207 34.5093 32.6089 34.1696 32.4849C33.8449 32.3657 33.5665 32.1511 33.2637 31.9804C32.961 31.8097 32.6096 31.6848 32.2739 31.7682C31.6951 31.9113 31.3938 32.6093 30.8216 32.7776C30.567 32.852 30.2938 32.81 30.0354 32.7519C29.777 32.6937 29.5171 32.6179 29.2525 32.6279C29.0446 32.6355 28.8286 32.7075 28.6832 32.8496L28.6794 32.8539C28.6552 32.8776 28.6332 32.9035 28.6136 32.9311C28.4362 33.1695 28.4076 33.4857 28.4624 33.7746C28.5235 34.0983 28.6746 34.3973 28.8367 34.6838C29.0274 35.0214 29.2449 35.3571 29.5605 35.5821C29.9505 35.8601 30.4402 35.6684 30.9174 35.7061C32.0298 35.7938 33.2265 35.8534 34.3394 35.7676C34.9273 35.7199 35.478 35.7857 35.9443 35.4248C36.2723 35.1711 36.4859 34.7887 36.5889 34.3873C36.6919 33.9858 36.6933 33.5615 36.6518 33.149Z" fill="#FECF3E"/>
<g opacity="0.24">
<path opacity="0.24" d="M34.5521 32.5757C34.4896 32.671 34.4625 32.8007 34.523 32.898C34.5836 32.9953 34.6661 33.0844 34.6918 33.1965C34.7333 33.3719 34.6274 33.5436 34.5488 33.7062C34.4031 33.9969 34.3482 34.3246 34.3909 34.6469C34.436 34.9702 34.603 35.2641 34.8577 35.4684C34.9707 35.5556 35.1176 35.6233 35.2539 35.5804C35.3822 35.5404 35.4647 35.4102 35.4923 35.2781C35.52 35.1461 35.4966 35.0102 35.4799 34.8772C35.4023 34.2572 35.4184 33.629 35.5276 33.0139C35.5457 32.9113 35.5629 32.7941 35.4981 32.7125C35.4513 32.665 35.3919 32.632 35.3269 32.6172C35.079 32.5347 34.8115 32.6262 34.5545 32.5776" fill="black"/>
</g>
<path d="M28.1139 36.0002C28.1139 36.0002 28.0915 35.6273 28.5778 35.4194H37.1243C37.1243 35.4194 37.5701 35.6454 37.625 35.9916L28.1139 36.0002Z" fill="#455A64"/>
<path d="M36.9426 19.6418L36.9287 19.648L28.8924 19.5965C28.8924 19.5965 28.8638 19.5784 28.8214 19.5445C28.7713 19.5053 28.7347 19.4513 28.7169 19.3902C28.699 19.3292 28.7007 19.264 28.7217 19.204C28.7428 19.1439 28.7821 19.0919 28.8342 19.0553C28.8862 19.0188 28.9485 18.9994 29.0121 19L36.8124 19.0629C37.1333 19.0658 37.2344 19.5045 36.9426 19.6418Z" fill="#455A64"/>
<g opacity="0.24">
<path opacity="0.24" d="M35.6555 22.7078C35.6717 22.7388 35.6111 22.8032 35.4962 22.9081C35.3813 23.0129 35.2101 23.1507 34.9975 23.3238C34.7422 23.5348 34.4712 23.726 34.1869 23.896C34.0104 23.9982 33.8246 24.0836 33.632 24.151C33.5276 24.1871 33.4211 24.2166 33.313 24.2393C33.1995 24.2634 33.0842 24.2784 32.9683 24.2841C32.7334 24.2969 32.4982 24.2645 32.2755 24.1887C32.0786 24.1171 31.8915 24.021 31.7186 23.9026C31.5584 23.7968 31.4206 23.6919 31.2895 23.5913C31.1584 23.4907 31.0416 23.3939 30.9357 23.3024C30.5137 22.9367 30.2916 22.6677 30.3345 22.6158C30.3774 22.5638 30.6778 22.7331 31.145 23.0191L31.5264 23.2528C31.6633 23.3357 31.8097 23.4278 31.9594 23.5126C32.1079 23.5998 32.2654 23.671 32.429 23.7248C32.5965 23.7749 32.7713 23.7956 32.9459 23.7858C33.312 23.7668 33.6672 23.638 33.9748 23.4893C34.2823 23.3405 34.5608 23.167 34.802 23.0315C34.9929 22.9189 35.1926 22.8216 35.399 22.7407C35.5501 22.6878 35.6416 22.6778 35.6555 22.7078Z" fill="black"/>
</g>
<path d="M32.7402 30.2774C32.774 30.2639 32.8117 30.2643 32.8452 30.2785C32.8787 30.2927 32.9053 30.3195 32.9191 30.3531C32.933 30.3867 32.9331 30.4244 32.9194 30.458C32.9057 30.4917 32.8792 30.5186 32.8458 30.5329C32.8124 30.5473 32.7747 30.5478 32.7408 30.5346C32.707 30.5213 32.6797 30.4952 32.665 30.462C32.6502 30.4288 32.6491 30.3911 32.662 30.357C32.6748 30.323 32.7005 30.2954 32.7336 30.2802" fill="#FECF3E"/>
<path d="M29.8662 24.0375C29.8557 24.0289 29.8461 24.0193 29.8376 24.0089L29.7599 23.924C29.727 23.8863 29.6836 23.8425 29.6392 23.7867L29.4876 23.596C29.4356 23.5225 29.377 23.4434 29.3179 23.3576L29.2306 23.2188C29.2158 23.195 29.2001 23.1711 29.1858 23.1459L29.1438 23.0686C29.0169 22.8437 28.9175 22.6044 28.8478 22.3558C28.7776 22.1074 28.7398 21.851 28.7352 21.593C28.7352 21.5334 28.7386 21.4757 28.7395 21.4189C28.7395 21.3908 28.7395 21.3631 28.7433 21.336C28.7471 21.3088 28.7491 21.2821 28.7519 21.2559C28.7581 21.2034 28.7619 21.1524 28.7691 21.1038C28.7762 21.0551 28.7862 21.0084 28.7944 20.965C28.8077 20.8759 28.8315 20.7981 28.8482 20.7266C28.8573 20.6923 28.8644 20.6599 28.8735 20.6313L28.8997 20.5516L28.9364 20.4425C28.9399 20.4295 28.9447 20.4168 28.9507 20.4048C28.9488 20.4181 28.9456 20.4312 28.9412 20.4439C28.9331 20.4715 28.9226 20.5082 28.9088 20.5545L28.8849 20.6341C28.8768 20.6632 28.8702 20.6956 28.8616 20.7295C28.8463 20.7986 28.8239 20.8768 28.8139 20.9679C28.8063 21.0117 28.7986 21.058 28.7905 21.1061C28.7824 21.1543 28.7805 21.2048 28.7748 21.2573C28.7748 21.2835 28.7696 21.3097 28.7667 21.3369C28.7638 21.3641 28.7667 21.3917 28.7638 21.4194C28.7638 21.4757 28.76 21.5329 28.7605 21.592C28.7652 21.8485 28.8025 22.1035 28.8716 22.3506C28.941 22.5974 29.0391 22.8351 29.1639 23.0591C29.1777 23.0848 29.1915 23.1106 29.2049 23.1363C29.2182 23.1621 29.2349 23.184 29.2492 23.2088L29.335 23.3475C29.3932 23.4353 29.4509 23.5144 29.5014 23.5859L29.6502 23.7767C29.6931 23.8334 29.7355 23.8777 29.767 23.9168L29.8414 24.005C29.8503 24.0153 29.8586 24.0261 29.8662 24.0375Z" fill="#263238"/>
<path d="M29.4137 31.1206C29.4161 31.1151 29.4189 31.1098 29.4223 31.1049L29.4509 31.0601C29.4638 31.04 29.4795 31.0162 29.4986 30.9876L29.5286 30.9399C29.5405 30.9242 29.5544 30.9084 29.5682 30.8922L29.6635 30.7778C29.7002 30.7382 29.7422 30.6972 29.7865 30.6524C29.8894 30.5534 29.9986 30.4613 30.1136 30.3768C30.3668 30.1861 30.6934 29.9954 31.0472 29.7718C31.2332 29.6571 31.412 29.5312 31.5826 29.3946C31.7656 29.2488 31.9273 29.0781 32.0628 28.8873C32.3108 28.5063 32.4455 28.0627 32.4513 27.6081C32.4574 27.2376 32.3953 26.8691 32.2683 26.521C32.1841 26.2861 32.0784 26.0594 31.9526 25.8439C31.9083 25.7672 31.872 25.709 31.8472 25.6694L31.8191 25.6246C31.8129 25.6146 31.8101 25.6089 31.8101 25.6089C31.8143 25.6132 31.818 25.618 31.821 25.6232L31.8515 25.6671C31.8778 25.7052 31.9154 25.7624 31.9607 25.8392C32.0904 26.0535 32.199 26.2799 32.2849 26.5153C32.4154 26.8648 32.4801 27.2355 32.4757 27.6086C32.4736 27.7161 32.4649 27.8234 32.4494 27.9299C32.434 28.0413 32.4106 28.1514 32.3793 28.2594C32.3142 28.4881 32.213 28.7049 32.0794 28.9016C31.9426 29.0944 31.7792 29.267 31.5941 29.4142C31.4225 29.5508 31.2427 29.6769 31.0558 29.7918C30.7006 30.0135 30.3735 30.2023 30.1203 30.3916C30.0053 30.475 29.8958 30.5656 29.7923 30.6629C29.7479 30.7072 29.7055 30.7473 29.6683 30.7864L29.5729 30.8984C29.5586 30.9156 29.5448 30.9313 29.5329 30.9461L29.5019 30.9914L29.4542 31.0624L29.4237 31.1058C29.4208 31.111 29.4174 31.116 29.4137 31.1206Z" fill="#263238"/>
<path d="M28.9702 31.9629C28.9673 31.9707 28.9638 31.9782 28.9597 31.9853L28.9254 32.0459C28.9101 32.0716 28.892 32.104 28.8734 32.1412C28.8548 32.1784 28.831 32.2223 28.8109 32.2724C28.8004 32.2971 28.789 32.3229 28.7776 32.3496C28.7661 32.3763 28.7566 32.4059 28.7451 32.4354C28.7222 32.4945 28.7041 32.5594 28.6832 32.6261C28.6002 32.925 28.5716 33.2364 28.5988 33.5454C28.6069 33.616 28.6126 33.6837 28.625 33.7456C28.6302 33.7766 28.6345 33.8071 28.6407 33.8358C28.6469 33.8644 28.6536 33.892 28.6598 33.9182C28.6703 33.9712 28.686 34.0174 28.6975 34.0584C28.7089 34.0994 28.7203 34.1347 28.7308 34.1633L28.7532 34.2291C28.7565 34.2365 28.7585 34.2444 28.7594 34.2525C28.7548 34.2458 28.7512 34.2386 28.7485 34.231C28.7413 34.2134 28.7327 34.1924 28.7218 34.1666C28.7074 34.1327 28.6948 34.098 28.6841 34.0627C28.6712 34.0217 28.6545 33.9755 28.6426 33.9225C28.6359 33.8963 28.6293 33.8687 28.6221 33.84C28.615 33.8114 28.6107 33.7804 28.6045 33.7495C28.5911 33.6865 28.5845 33.6188 28.5759 33.5478C28.546 33.2369 28.5748 32.9231 28.6607 32.6228C28.6822 32.5541 28.7013 32.4888 28.7256 32.4297C28.7375 32.4001 28.747 32.371 28.7594 32.3439L28.7947 32.2662C28.8157 32.2185 28.8424 32.1741 28.861 32.136C28.8778 32.1032 28.8964 32.0714 28.9168 32.0406L28.9549 31.982C28.9645 31.9691 28.9692 31.9624 28.9702 31.9629Z" fill="#263238"/>
<path d="M34.865 33.1095L34.8554 33.1161L34.8259 33.1347L34.71 33.2043L34.6261 33.252C34.5946 33.2697 34.5598 33.2859 34.5226 33.3045C34.4473 33.3407 34.3643 33.387 34.2661 33.4241L34.1136 33.4866C34.0606 33.5076 34.0029 33.5243 33.9448 33.5443C33.8289 33.5867 33.7002 33.6172 33.5662 33.652C32.9779 33.7898 32.3677 33.8061 31.773 33.6997C31.6366 33.6721 31.5069 33.6482 31.3887 33.612C31.3296 33.5948 31.2714 33.5815 31.217 33.5643L31.0616 33.5076C30.962 33.4756 30.8761 33.4342 30.7994 33.4017C30.7612 33.385 30.7255 33.3703 30.6935 33.3541L30.6067 33.3088L30.4875 33.2453L30.457 33.2282L30.447 33.222C30.447 33.222 30.4513 33.222 30.4585 33.2263L30.4899 33.2411L30.611 33.3002L30.6983 33.3431C30.7307 33.3583 30.7669 33.3722 30.8051 33.3884C30.8819 33.4189 30.9677 33.4594 31.0678 33.4899L31.2213 33.5457C31.2757 33.5638 31.3339 33.5767 31.393 33.5934C31.5107 33.6287 31.64 33.6511 31.7744 33.6783C32.3664 33.7808 32.9729 33.7646 33.5586 33.6306C33.6921 33.5963 33.8203 33.5672 33.9362 33.5257C33.9944 33.5062 34.0516 33.4904 34.1045 33.4694L34.2571 33.4089C34.3553 33.3726 34.4387 33.3278 34.5141 33.293C34.5512 33.2749 34.5865 33.2592 34.618 33.2453L34.7029 33.1977L34.8206 33.1319L34.8516 33.1157C34.8612 33.1104 34.865 33.109 34.865 33.1095Z" fill="#263238"/>
<path d="M35.3622 23.0181C35.3593 23.0215 35.356 23.0246 35.3522 23.0271L35.3208 23.0529C35.2917 23.0762 35.2511 23.1091 35.1992 23.1482C35.0933 23.2321 34.9398 23.3537 34.7457 23.4987C34.5199 23.6715 34.2831 23.8295 34.0368 23.9717C33.8903 24.0536 33.7375 24.1239 33.58 24.1819C33.4101 24.2437 33.2328 24.2832 33.0527 24.2992C32.7025 24.3189 32.3532 24.2462 32.04 24.0885C31.9045 24.0196 31.7737 23.9419 31.6485 23.8558C31.5322 23.7738 31.4258 23.6942 31.3319 23.6174C31.1412 23.4658 30.9953 23.3375 30.8923 23.2498L30.7745 23.1478L30.7445 23.1211L30.7345 23.111C30.7345 23.111 30.7388 23.111 30.7459 23.1187L30.7779 23.1439L30.8985 23.2422C31.0034 23.328 31.1531 23.4539 31.3429 23.6036C31.4382 23.6784 31.5436 23.7571 31.6604 23.8381C31.7852 23.9228 31.9153 23.9992 32.05 24.067C32.3601 24.2216 32.7052 24.2928 33.0512 24.2735C33.2292 24.2577 33.4044 24.2189 33.5724 24.1581C33.7288 24.1009 33.8806 24.0315 34.0263 23.9507C34.2722 23.8111 34.5093 23.6565 34.7362 23.4877C34.9307 23.3447 35.0857 23.2255 35.1939 23.1439L35.3184 23.0486L35.3513 23.0247C35.3546 23.022 35.3583 23.0197 35.3622 23.0181Z" fill="#263238"/>
<g opacity="0.24">
<path opacity="0.24" d="M31.062 33.5101C31.288 33.3356 31.6056 33.3776 31.885 33.4367C32.1644 33.4958 32.4457 33.5907 32.7284 33.5511C32.9415 33.5211 33.137 33.4167 33.3482 33.3709C33.5594 33.3251 33.8136 33.359 33.9304 33.5397C32.9968 33.8405 31.9907 33.8302 31.0634 33.5101" fill="black"/>
</g>
</svg>
