<svg width="19" height="19" viewBox="0 0 19 19" fill="none" xmlns="http://www.w3.org/2000/svg">
<path d="M18.7402 16.4395C18.8887 16.625 19 16.8477 19 17.0703C19 17.3301 18.8887 17.5527 18.7402 17.7012L17.7012 18.7402C17.5156 18.9258 17.293 19 17.0703 19C16.8105 19 16.5879 18.9258 16.4395 18.7402L12.7285 15.0293C12.543 14.8809 12.4688 14.6582 12.4688 14.3984C12.4688 14.158 12.1889 14.0209 11.99 14.156C10.7073 15.0277 9.30082 15.4375 7.71875 15.4375C6.30859 15.4375 5.00977 15.1035 3.82227 14.3984C2.63477 13.7305 1.70703 12.8027 1.03906 11.6152C0.333984 10.4277 0 9.12891 0 7.71875C0 6.30859 0.333984 5.04688 1.03906 3.85938C1.70703 2.67188 2.63477 1.74414 3.82227 1.03906C5.00977 0.371094 6.30859 0 7.71875 0C9.12891 0 10.3906 0.371094 11.5781 1.03906C12.7656 1.74414 13.6934 2.67188 14.3984 3.85938C15.0664 5.04688 15.4375 6.30859 15.4375 7.71875C15.4375 9.2961 15.001 10.7279 14.1538 11.9885C14.0193 12.1886 14.1574 12.4688 14.3984 12.4688C14.6211 12.4688 14.8438 12.5801 15.0293 12.7285L18.7402 16.4395ZM7.71875 12.4688C8.57227 12.4688 9.35156 12.2832 10.0938 11.8379C10.8359 11.4297 11.3926 10.873 11.8379 10.1309C12.2461 9.38867 12.4688 8.60938 12.4688 7.71875C12.4688 6.86523 12.2461 6.08594 11.8379 5.34375C11.3926 4.60156 10.8359 4.04492 10.0938 3.59961C9.35156 3.19141 8.57227 2.96875 7.71875 2.96875C6.82812 2.96875 6.04883 3.19141 5.30664 3.59961C4.56445 4.04492 4.00781 4.60156 3.59961 5.34375C3.1543 6.08594 2.96875 6.86523 2.96875 7.71875C2.96875 8.60938 3.1543 9.38867 3.59961 10.1309C4.00781 10.873 4.56445 11.4297 5.30664 11.8379C6.04883 12.2832 6.82812 12.4688 7.71875 12.4688Z" fill="url(#paint0_linear_3_41)"/>
<defs>
<linearGradient id="paint0_linear_3_41" x1="-2.6943e-08" y1="-1.16667" x2="21.9337" y2="2.23164" gradientUnits="userSpaceOnUse">
<stop stop-color="#FECF3E"/>
<stop offset="1" stop-color="#FECF3E"/>
</linearGradient>
</defs>
</svg>
