<svg width="50" height="58" viewBox="0 0 50 58" fill="none" xmlns="http://www.w3.org/2000/svg">
<path d="M49.0234 13.9109C49.0234 13.9109 45.9042 38.8888 40.7766 44.5053C34.6045 51.2471 30.1559 50.2596 27.6729 53.7397C25.185 50.2549 20.7222 51.2471 14.5596 44.5006C9.43204 38.884 6.32227 13.9061 6.32227 13.9061C19.8296 7.3495 27.6871 0 27.6871 0C27.915 0.237387 35.725 7.4587 49.0234 13.9109Z" fill="#FFC727"/>
<path opacity="0.1" d="M27.6728 0.0237384V53.7397C25.185 50.2549 20.7222 51.2471 14.5596 44.5006C9.43204 38.884 6.32227 13.9061 6.32227 13.9061C19.8296 7.3495 27.6871 0 27.6871 0L27.6728 0.0237384Z" fill="black"/>
<path d="M9.63135 15.924C9.63135 15.924 12.2616 37.023 16.5915 41.7707C21.8141 47.468 25.5743 46.6371 27.6728 49.5712C29.7713 46.6371 33.5457 47.4727 38.7493 41.7707C43.0792 37.023 45.7095 15.924 45.7095 15.924C34.3149 10.3834 27.668 4.17334 27.668 4.17334C27.668 4.17334 21.0402 10.3834 9.63135 15.924Z" fill="#FFC727"/>
<path opacity="0.2" d="M45.7046 15.924C45.7046 15.924 43.0696 37.0183 38.7397 41.7707C33.5409 47.468 29.7665 46.6372 27.668 49.5666V4.18286C27.8674 4.37277 34.4715 10.4689 45.7046 15.924Z" fill="white"/>
<path d="M27.6683 35.2376C32.2884 35.2376 36.0338 31.4923 36.0338 26.8721C36.0338 22.252 32.2884 18.5066 27.6683 18.5066C23.0481 18.5066 19.3027 22.252 19.3027 26.8721C19.3027 31.4923 23.0481 35.2376 27.6683 35.2376Z" fill="#455A64"/>
<path d="M26.7182 32.3083L22.9912 28.4342L24.3728 27.1048L26.4286 29.2413L30.8535 22.4473L32.463 23.4965L26.7182 32.3083Z" fill="white"/>
<path d="M45.7047 50.0697L44.5225 50.2929L44.2567 51.5368L43.9908 50.2929L42.8086 50.0697L43.986 49.7849L44.2567 48.6074L44.5273 49.7849L45.7047 50.0697Z" fill="#FFC727"/>
<path d="M10.6618 40.5886L9.4796 40.807L9.21372 42.0557L8.94785 40.807L7.76562 40.5886L8.94309 40.299L9.21372 39.1216L9.48435 40.299L10.6618 40.5886Z" fill="#FFC727"/>
<path d="M16.0597 7.7151L14.8775 7.9335L14.6116 9.17741L14.3505 7.9335L13.1636 7.71035L14.3458 7.42549L14.6116 6.24805L14.8823 7.42549L16.0597 7.7151Z" fill="#FFC727"/>
<path d="M43.5872 44.4627L42.9273 44.5862L42.7801 45.2841L42.6329 44.5862L41.9683 44.4627L42.6282 44.3013L42.7801 43.6414L42.9273 44.3013L43.5872 44.4627Z" fill="#FFC727"/>
<path d="M48.1595 30.5849L47.4996 30.7084L47.3524 31.4063L47.2052 30.7084L46.5405 30.5849L47.2005 30.4235L47.3524 29.7683L47.5043 30.4235L48.1595 30.5849Z" fill="#FFC727"/>
<path d="M42.5477 6.24787L41.8877 6.37131L41.7406 7.06448L41.5886 6.37131L40.9287 6.24787L41.5886 6.08645L41.7406 5.42651L41.8877 6.08645L42.5477 6.24787Z" fill="#FFC727"/>
<path d="M25.66 56.7406L25.0001 56.864L24.8481 57.5572L24.701 56.864L24.041 56.7406L24.701 56.5791L24.8481 55.9192L25.0001 56.5791L25.66 56.7406Z" fill="#FFC727"/>
<path d="M6.98712 42.2122L6.32719 42.3357L6.17527 43.0336L6.0281 42.3357L5.36816 42.2122L6.0281 42.0508L6.17527 41.3909L6.32719 42.0508L6.98712 42.2122Z" fill="#FFC727"/>
<path d="M8.01743 22.889L7.35274 23.0124L7.20556 23.7103L7.05837 23.0124L6.39844 22.889L7.05362 22.7276L7.20556 22.0676L7.35749 22.7276L8.01743 22.889Z" fill="#FFC727"/>
<path d="M35.7532 47.5913C35.7074 47.5985 35.6657 47.6219 35.6356 47.6571C35.6054 47.6924 35.5889 47.7372 35.5889 47.7836C35.5889 47.83 35.6054 47.8748 35.6356 47.9101C35.6657 47.9453 35.7074 47.9687 35.7532 47.9759C35.799 47.9687 35.8408 47.9453 35.8709 47.9101C35.901 47.8748 35.9176 47.83 35.9176 47.7836C35.9176 47.7372 35.901 47.6924 35.8709 47.6571C35.8408 47.6219 35.799 47.5985 35.7532 47.5913Z" fill="#FFC727"/>
<path d="M5.27322 12.8425C5.22741 12.8497 5.18571 12.8731 5.15558 12.9083C5.12545 12.9436 5.10889 12.9884 5.10889 13.0348C5.10889 13.0812 5.12545 13.126 5.15558 13.1613C5.18571 13.1965 5.22741 13.2199 5.27322 13.2271C5.31902 13.2199 5.36074 13.1965 5.39087 13.1613C5.421 13.126 5.43756 13.0812 5.43756 13.0348C5.43756 12.9884 5.421 12.9436 5.39087 12.9083C5.36074 12.8731 5.31902 12.8497 5.27322 12.8425Z" fill="#FFC727"/>
<path d="M41.7405 48.6692C41.6947 48.6764 41.653 48.6997 41.6229 48.735C41.5927 48.7702 41.5762 48.8151 41.5762 48.8615C41.5762 48.9079 41.5927 48.9527 41.6229 48.988C41.653 49.0232 41.6947 49.0465 41.7405 49.0538C41.7863 49.0465 41.828 49.0232 41.8582 48.988C41.8883 48.9527 41.9049 48.9079 41.9049 48.8615C41.9049 48.8151 41.8883 48.7702 41.8582 48.735C41.828 48.6997 41.7863 48.6764 41.7405 48.6692Z" fill="#FFC727"/>
<path d="M22.3271 18.7346C22.2767 18.7346 22.2284 18.7546 22.1928 18.7902C22.1572 18.8259 22.1372 18.8742 22.1372 18.9245C22.1372 18.9749 22.1572 19.0232 22.1928 19.0588C22.2284 19.0944 22.2767 19.1144 22.3271 19.1144C22.3775 19.1144 22.4258 19.0944 22.4614 19.0588C22.497 19.0232 22.517 18.9749 22.517 18.9245C22.517 18.8742 22.497 18.8259 22.4614 18.7902C22.4258 18.7546 22.3775 18.7346 22.3271 18.7346Z" fill="#FFC727"/>
<path d="M4.57987 26.4543C4.53407 26.4616 4.49234 26.4849 4.46221 26.5202C4.43208 26.5554 4.41553 26.6003 4.41553 26.6466C4.41553 26.693 4.43208 26.7379 4.46221 26.7731C4.49234 26.8084 4.53407 26.8317 4.57987 26.8389C4.62568 26.8317 4.66741 26.8084 4.69754 26.7731C4.72767 26.7379 4.74422 26.693 4.74422 26.6466C4.74422 26.6003 4.72767 26.5554 4.69754 26.5202C4.66741 26.4849 4.62568 26.4616 4.57987 26.4543Z" fill="#FFC727"/>
<path d="M0.112208 24.3655C0.0806643 24.3714 0.05219 24.3882 0.0316993 24.4129C0.0112086 24.4376 0 24.4687 0 24.5008C0 24.5329 0.0112086 24.564 0.0316993 24.5887C0.05219 24.6134 0.0806643 24.6302 0.112208 24.6361C0.143752 24.6302 0.17224 24.6134 0.192731 24.5887C0.213222 24.564 0.22443 24.5329 0.22443 24.5008C0.22443 24.4687 0.213222 24.4376 0.192731 24.4129C0.17224 24.3882 0.143752 24.3714 0.112208 24.3655Z" fill="#FFC727"/>
<path d="M36.684 3.74585C36.6525 3.75178 36.624 3.76856 36.6035 3.79326C36.583 3.81797 36.5718 3.84906 36.5718 3.88116C36.5718 3.91326 36.583 3.94435 36.6035 3.96906C36.624 3.99377 36.6525 4.01054 36.684 4.01647C36.7156 4.01054 36.7441 3.99377 36.7645 3.96906C36.785 3.94435 36.7963 3.91326 36.7963 3.88116C36.7963 3.84906 36.785 3.81797 36.7645 3.79326C36.7441 3.76856 36.7156 3.75178 36.684 3.74585Z" fill="#FFC727"/>
<path d="M17.7597 50.1648C17.7282 50.1707 17.6997 50.1875 17.6792 50.2122C17.6587 50.2369 17.6475 50.268 17.6475 50.3001C17.6475 50.3322 17.6587 50.3633 17.6792 50.388C17.6997 50.4127 17.7282 50.4295 17.7597 50.4354C17.7913 50.4295 17.8197 50.4127 17.8402 50.388C17.8607 50.3633 17.872 50.3322 17.872 50.3001C17.872 50.268 17.8607 50.2369 17.8402 50.2122C17.8197 50.1875 17.7913 50.1707 17.7597 50.1648Z" fill="#FFC727"/>
<path d="M13.5199 47.6719C13.4295 47.6822 13.346 47.7254 13.2855 47.7932C13.2249 47.8611 13.1914 47.9489 13.1914 48.0398C13.1914 48.1308 13.2249 48.2186 13.2855 48.2865C13.346 48.3543 13.4295 48.3975 13.5199 48.4078C13.6103 48.3975 13.6937 48.3543 13.7543 48.2865C13.8148 48.2186 13.8483 48.1308 13.8483 48.0398C13.8483 47.9489 13.8148 47.8611 13.7543 47.7932C13.6937 47.7254 13.6103 47.6822 13.5199 47.6719Z" fill="#FFC727"/>
</svg>
