<svg width="56" height="57" viewBox="0 0 56 57" fill="none" xmlns="http://www.w3.org/2000/svg">
<g clip-path="url(#clip0_224_3018)">
<path d="M29.6579 51.9289C40.3902 51.9289 49.0904 43.2287 49.0904 32.4964C49.0904 21.7642 40.3902 13.064 29.6579 13.064C18.9257 13.064 10.2255 21.7642 10.2255 32.4964C10.2255 43.2287 18.9257 51.9289 29.6579 51.9289Z" fill="#084523"/>
<path d="M24.6926 41.2622L34.6847 51.2543C42.9604 49.0475 49.0905 41.5074 49.0905 32.4962C49.0905 32.3123 49.0905 32.1284 49.0905 31.9445L41.2439 24.7109L24.6926 41.2622Z" fill="#084523"/>
<path d="M30.1482 36.8491C31.0064 37.7073 31.0064 39.1785 30.1482 40.0368L28.3705 41.8145C27.5123 42.6727 26.041 42.6727 25.1828 41.8145L17.3976 33.9679C16.5394 33.1097 16.5394 31.6385 17.3976 30.7803L19.1753 29.0025C20.0335 28.1443 21.5047 28.1443 22.363 29.0025L30.1482 36.8491Z" fill="white"/>
<path d="M36.9525 23.3014C37.8108 22.4432 39.282 22.4432 40.1402 23.3014L41.9179 25.0791C42.7761 25.9373 42.7761 27.4085 41.9179 28.2668L28.4317 41.6917C27.5735 42.5499 26.1022 42.5499 25.244 41.6917L23.4663 39.914C22.6081 39.0558 22.6081 37.5845 23.4663 36.7263L36.9525 23.3014Z" fill="white"/>
</g>
<circle cx="53.9484" cy="5.2909" r="1.94325" fill="#084523"/>
<circle cx="4.39569" cy="1.40424" r="0.971623" fill="#084523"/>
<circle cx="52.9767" cy="55.8154" r="0.971623" fill="#084523"/>
<circle cx="4.88146" cy="51.4426" r="4.3723" fill="#084523"/>
<defs>
<clipPath id="clip0_224_3018">
<rect width="38.8649" height="38.8649" fill="white" transform="translate(10.2255 13.064)"/>
</clipPath>
</defs>
</svg>
