<svg width="46" height="43" viewBox="0 0 46 43" fill="none" xmlns="http://www.w3.org/2000/svg">
<g clip-path="url(#clip0_138_3050)">
<path d="M20.3125 3.6875C16.6465 3.6875 13.2819 4.97644 10.6458 7.125V30.875C13.2819 33.0236 16.6465 34.3125 20.3125 34.3125C28.7694 34.3125 35.625 27.4569 35.625 19C35.625 10.5431 28.7694 3.6875 20.3125 3.6875Z" fill="#FF7575"/>
<path d="M33.8748 19C33.8748 20.4137 34.8136 21.6075 36.1011 21.9937C36.6329 22.1531 36.9998 22.6381 36.9998 23.1931V29.625C36.9998 30.3156 36.4404 30.875 35.7498 30.875H29.1498C28.7079 30.875 28.2886 30.6494 28.0723 30.2638C27.8586 29.8825 27.4498 29.625 26.9817 29.625L25.7317 19L26.9817 8.375C27.4498 8.375 27.8586 8.1175 28.0723 7.73625C28.2886 7.35062 28.7079 7.125 29.1498 7.125H35.7498C36.4404 7.125 36.9998 7.68437 36.9998 8.375V14.8069C36.9998 15.3619 36.6329 15.8469 36.1011 16.0063C34.8136 16.3925 33.8748 17.5863 33.8748 19Z" fill="#FFD962"/>
<path d="M30.7317 29.625V8.375C30.7317 7.68437 31.2911 7.125 31.9817 7.125H29.1498C28.7079 7.125 28.2886 7.35062 28.0723 7.73625C27.8586 8.1175 27.4498 8.375 26.9817 8.375L25.7317 19L26.9817 29.625C27.4498 29.625 27.8586 29.8825 28.0723 30.2638C28.2886 30.6494 28.7079 30.875 29.1498 30.875H31.9817C31.2911 30.875 30.7317 30.3156 30.7317 29.625Z" fill="#FFE580"/>
<path d="M26.9819 29.625C26.5131 29.625 26.105 29.8825 25.8913 30.2638C25.675 30.6494 25.255 30.875 24.8137 30.875H10.645C7.2 28.0675 5 23.7906 5 19C5 14.2094 7.2 9.9325 10.645 7.125H24.8137C25.255 7.125 25.675 7.35062 25.8913 7.73625C26.105 8.1175 26.5131 8.375 26.9819 8.375V29.625Z" fill="#FECF3E"/>
<path d="M10.6458 30.875H18.3337C16.9531 30.875 15.8337 29.7557 15.8337 28.375V9.625C15.8337 8.24431 16.9531 7.125 18.3337 7.125H10.6458C7.20069 9.93281 5 14.2091 5 19C5 23.7909 7.20069 28.0672 10.6458 30.875Z" fill="#FFC839"/>
<path d="M11.5283 26.3474C11.3181 26.3474 11.105 26.2942 10.9093 26.1825C10.3099 25.84 10.1017 25.0764 10.4442 24.477L17.4125 12.2827C17.755 11.6833 18.5185 11.4752 19.118 11.8176C19.7174 12.1601 19.9256 12.9237 19.5831 13.5231L12.6148 25.7174C12.3841 26.1211 11.9623 26.3474 11.5283 26.3474Z" fill="white"/>
<path d="M10.1629 19.0757C8.30592 19.0757 6.79517 17.4111 6.79517 15.3649C6.79517 13.3187 8.30592 11.6541 10.1629 11.6541C12.0199 11.6541 13.5306 13.3187 13.5306 15.3649C13.5306 17.4111 12.0199 19.0757 10.1629 19.0757ZM10.1629 14.1541C9.69254 14.1541 9.29517 14.7086 9.29517 15.3649C9.29517 16.0212 9.69248 16.5757 10.1629 16.5757C10.6332 16.5757 11.0306 16.0212 11.0306 15.3649C11.0306 14.7086 10.6332 14.1541 10.1629 14.1541Z" fill="white"/>
<path d="M19.8636 26.3472C18.0066 26.3472 16.4958 24.6825 16.4958 22.6363C16.4958 20.5901 18.0066 18.9254 19.8636 18.9254C21.7205 18.9254 23.2313 20.5901 23.2313 22.6363C23.2313 24.6825 21.7205 26.3472 19.8636 26.3472ZM19.8636 21.4254C19.3933 21.4254 18.9958 21.9799 18.9958 22.6363C18.9958 23.2927 19.3932 23.8472 19.8636 23.8472C20.334 23.8472 20.7313 23.2927 20.7313 22.6363C20.7313 21.9799 20.3339 21.4254 19.8636 21.4254Z" fill="white"/>
<path d="M19.7094 21.4687C19.0746 21.3924 18.5823 20.8529 18.5823 20.1975C18.5823 19.6166 18.9692 19.1267 19.4992 18.9696C17.813 19.1705 16.4958 20.7479 16.4958 22.6584C16.4958 24.5689 17.813 26.1463 19.4992 26.3472C18.9692 26.1901 18.5823 25.7002 18.5823 25.1192C18.5823 24.4639 19.0746 23.9244 19.7094 23.8481C19.3097 23.7432 18.9958 23.2414 18.9958 22.6584C18.9958 22.0753 19.3097 21.5736 19.7094 21.4687Z" fill="#D3DCFB"/>
<path d="M10.0087 14.1736C9.37392 14.0974 8.8816 13.5579 8.8816 12.9025C8.8816 12.3216 9.26848 11.8316 9.79848 11.6746C8.11229 11.8754 6.79517 13.4528 6.79517 15.3634C6.79517 17.2739 8.11235 18.8512 9.79848 19.0521C9.26848 18.8951 8.8816 18.4051 8.8816 17.8242C8.8816 17.1689 9.37392 16.6294 10.0087 16.5531C9.60898 16.4481 9.29517 15.9464 9.29517 15.3634C9.29517 14.7803 9.60898 14.2786 10.0087 14.1736Z" fill="#D3DCFB"/>
<path d="M15.0137 20.2813C14.306 20.2813 13.7324 19.7077 13.7324 19.0001C13.7324 18.8693 13.7522 18.7431 13.7887 18.6243L10.4442 24.4771C10.1017 25.0765 10.3099 25.8401 10.9093 26.1826C11.105 26.2943 11.318 26.3475 11.5283 26.3475C11.9622 26.3475 12.384 26.1212 12.6148 25.7175L15.9627 19.8587C15.7284 20.1176 15.3905 20.2813 15.0137 20.2813Z" fill="#D3DCFB"/>
<path d="M25.2629 14.7366H22.7629C22.504 14.7366 22.2942 14.5268 22.2942 14.2678C22.2942 14.0089 22.504 13.7991 22.7629 13.7991H25.2629C25.5219 13.7991 25.7317 14.0089 25.7317 14.2678C25.7317 14.5268 25.5219 14.7366 25.2629 14.7366Z" fill="#FFC839"/>
<path d="M25.2629 17.2366H22.7629C22.504 17.2366 22.2942 17.0268 22.2942 16.7678C22.2942 16.5089 22.504 16.2991 22.7629 16.2991H25.2629C25.5219 16.2991 25.7317 16.5089 25.7317 16.7678C25.7317 17.0268 25.5219 17.2366 25.2629 17.2366Z" fill="#FFC839"/>
<path d="M24.7942 12.125C25.312 12.125 25.7317 11.7053 25.7317 11.1875C25.7317 10.6697 25.312 10.25 24.7942 10.25C24.2764 10.25 23.8567 10.6697 23.8567 11.1875C23.8567 11.7053 24.2764 12.125 24.7942 12.125Z" fill="#FFC839"/>
<path d="M31.2004 25.7188H28.7004C28.4415 25.7188 28.2317 25.5089 28.2317 25.25C28.2317 24.9911 28.4415 24.7812 28.7004 24.7812H31.2004C31.4594 24.7812 31.6692 24.9911 31.6692 25.25C31.6692 25.5089 31.4594 25.7188 31.2004 25.7188Z" fill="white"/>
<path d="M31.2004 28.2188H28.7004C28.4415 28.2188 28.2317 28.0089 28.2317 27.75C28.2317 27.4911 28.4415 27.2812 28.7004 27.2812H31.2004C31.4594 27.2812 31.6692 27.4911 31.6692 27.75C31.6692 28.0089 31.4594 28.2188 31.2004 28.2188Z" fill="white"/>
<path d="M29.1692 23.1072C29.687 23.1072 30.1067 22.6874 30.1067 22.1697C30.1067 21.6519 29.687 21.2322 29.1692 21.2322C28.6514 21.2322 28.2317 21.6519 28.2317 22.1697C28.2317 22.6874 28.6514 23.1072 29.1692 23.1072Z" fill="white"/>
<circle cx="34" cy="4" r="1" fill="#FF7575"/>
</g>
<circle cx="3" cy="3" r="3" fill="#FF7575"/>
<circle cx="4" cy="34" r="2" fill="#FF7575"/>
<circle cx="26.5" cy="42.5" r="0.5" fill="#FF7575"/>
<circle cx="43.5" cy="21.5" r="2.5" fill="#FF7575"/>
<defs>
<clipPath id="clip0_138_3050">
<rect width="32" height="32" fill="white" transform="translate(5 3)"/>
</clipPath>
</defs>
</svg>
